<?xml version="1.0" encoding="utf-8" standalone="no"?>
<!DOCTYPE svg PUBLIC "-//W3C//DTD SVG 1.1//EN"
  "http://www.w3.org/Graphics/SVG/1.1/DTD/svg11.dtd">
<svg xmlns:xlink="http://www.w3.org/1999/xlink" width="907.2pt" height="513.36pt" viewBox="0 0 907.2 513.36" xmlns="http://www.w3.org/2000/svg" version="1.1">
 <metadata>
  <rdf:RDF xmlns:dc="http://purl.org/dc/elements/1.1/" xmlns:cc="http://creativecommons.org/ns#" xmlns:rdf="http://www.w3.org/1999/02/22-rdf-syntax-ns#">
   <cc:Work>
    <dc:type rdf:resource="http://purl.org/dc/dcmitype/StillImage"/>
    <dc:date>2026-01-21T22:31:53.449301</dc:date>
    <dc:format>image/svg+xml</dc:format>
    <dc:creator>
     <cc:Agent>
      <dc:title>Matplotlib v3.7.5, https://matplotlib.org/</dc:title>
     </cc:Agent>
    </dc:creator>
   </cc:Work>
  </rdf:RDF>
 </metadata>
 <defs>
  <style type="text/css">*{stroke-linejoin: round; stroke-linecap: butt}</style>
 </defs>
 <g id="figure_1">
  <g id="patch_1">
   <path d="M 0 513.36 
L 907.2 513.36 
L 907.2 -0 
L 0 -0 
z
" style="fill: #ffffff"/>
  </g>
  <g id="axes_1">
   <g id="patch_2">
    <path d="M 46.4832 484.20576 
L 860.7168 484.20576 
Q 878.5728 484.20576 878.5728 474.22656 
L 878.5728 49.11264 
Q 878.5728 39.13344 860.7168 39.13344 
L 46.4832 39.13344 
Q 28.6272 39.13344 28.6272 49.11264 
L 28.6272 474.22656 
Q 28.6272 484.20576 46.4832 484.20576 
z
" clip-path="url(#pd6a0d8d52c)" style="fill: #f9fafb; stroke: #111827; stroke-width: 2; stroke-linejoin: miter"/>
   </g>
   <g id="patch_3">
    <path d="M 73.2672 164.87136 
L 833.9328 164.87136 
Q 851.7888 164.87136 851.7888 154.89216 
L 851.7888 69.07104 
Q 851.7888 59.09184 833.9328 59.09184 
L 73.2672 59.09184 
Q 55.4112 59.09184 55.4112 69.07104 
L 55.4112 154.89216 
Q 55.4112 164.87136 73.2672 164.87136 
z
" clip-path="url(#pd6a0d8d52c)" style="fill: #ffffff; stroke: #111827; stroke-width: 2; stroke-linejoin: miter"/>
   </g>
   <g id="patch_4">
    <path d="M 91.1232 149.90256 
L 307.1808 149.90256 
Q 325.0368 149.90256 325.0368 139.92336 
L 325.0368 84.03984 
Q 325.0368 74.06064 307.1808 74.06064 
L 91.1232 74.06064 
Q 73.2672 74.06064 73.2672 84.03984 
L 73.2672 139.92336 
Q 73.2672 149.90256 91.1232 149.90256 
z
" clip-path="url(#pd6a0d8d52c)" style="fill: #ffffff; stroke: #111827; stroke-width: 1.6; stroke-linejoin: miter"/>
   </g>
   <g id="patch_5">
    <path d="M 345.5712 149.90256 
L 561.6288 149.90256 
Q 579.4848 149.90256 579.4848 139.92336 
L 579.4848 84.03984 
Q 579.4848 74.06064 561.6288 74.06064 
L 345.5712 74.06064 
Q 327.7152 74.06064 327.7152 84.03984 
L 327.7152 139.92336 
Q 327.7152 149.90256 345.5712 149.90256 
z
" clip-path="url(#pd6a0d8d52c)" style="fill: #ffffff; stroke: #111827; stroke-width: 1.6; stroke-linejoin: miter"/>
   </g>
   <g id="patch_6">
    <path d="M 600.0192 149.90256 
L 816.0768 149.90256 
Q 833.9328 149.90256 833.9328 139.92336 
L 833.9328 84.03984 
Q 833.9328 74.06064 816.0768 74.06064 
L 600.0192 74.06064 
Q 582.1632 74.06064 582.1632 84.03984 
L 582.1632 139.92336 
Q 582.1632 149.90256 600.0192 149.90256 
z
" clip-path="url(#pd6a0d8d52c)" style="fill: #ffffff; stroke: #111827; stroke-width: 1.6; stroke-linejoin: miter"/>
   </g>
   <g id="patch_7">
    <path d="M 73.2672 424.33056 
L 833.9328 424.33056 
Q 851.7888 424.33056 851.7888 414.35136 
L 851.7888 188.82144 
Q 851.7888 178.84224 833.9328 178.84224 
L 73.2672 178.84224 
Q 55.4112 178.84224 55.4112 188.82144 
L 55.4112 414.35136 
Q 55.4112 424.33056 73.2672 424.33056 
z
" clip-path="url(#pd6a0d8d52c)" style="fill: #ffffff; stroke: #111827; stroke-width: 2; stroke-linejoin: miter"/>
   </g>
   <g id="patch_8">
    <path d="M 91.1232 404.37216 
L 423.2448 404.37216 
Q 441.1008 404.37216 441.1008 394.39296 
L 441.1008 208.77984 
Q 441.1008 198.80064 423.2448 198.80064 
L 91.1232 198.80064 
Q 73.2672 198.80064 73.2672 208.77984 
L 73.2672 394.39296 
Q 73.2672 404.37216 91.1232 404.37216 
z
" clip-path="url(#pd6a0d8d52c)" style="fill: #f9fafb; stroke: #111827; stroke-width: 2; stroke-linejoin: miter"/>
   </g>
   <g id="patch_9">
    <path d="M 501.8112 404.37216 
L 816.0768 404.37216 
Q 833.9328 404.37216 833.9328 394.39296 
L 833.9328 208.77984 
Q 833.9328 198.80064 816.0768 198.80064 
L 501.8112 198.80064 
Q 483.9552 198.80064 483.9552 208.77984 
L 483.9552 394.39296 
Q 483.9552 404.37216 501.8112 404.37216 
z
" clip-path="url(#pd6a0d8d52c)" style="fill: #f9fafb; stroke: #111827; stroke-width: 2; stroke-linejoin: miter"/>
   </g>
   <g id="patch_10">
    <path d="M 108.9792 299.59056 
L 244.6848 299.59056 
Q 262.5408 299.59056 262.5408 289.61136 
L 262.5408 228.73824 
Q 262.5408 218.75904 244.6848 218.75904 
L 108.9792 218.75904 
Q 91.1232 218.75904 91.1232 228.73824 
L 91.1232 289.61136 
Q 91.1232 299.59056 108.9792 299.59056 
z
" clip-path="url(#pd6a0d8d52c)" style="fill: #ffffff; stroke: #111827; stroke-width: 1.6; stroke-linejoin: miter"/>
   </g>
   <g id="patch_11">
    <path d="M 278.6112 299.59056 
L 405.3888 299.59056 
Q 423.2448 299.59056 423.2448 289.61136 
L 423.2448 228.73824 
Q 423.2448 218.75904 405.3888 218.75904 
L 278.6112 218.75904 
Q 260.7552 218.75904 260.7552 228.73824 
L 260.7552 289.61136 
Q 260.7552 299.59056 278.6112 299.59056 
z
" clip-path="url(#pd6a0d8d52c)" style="fill: #ffffff; stroke: #111827; stroke-width: 1.6; stroke-linejoin: miter"/>
   </g>
   <g id="patch_12">
    <path d="M 519.6672 299.59056 
L 798.2208 299.59056 
Q 816.0768 299.59056 816.0768 289.61136 
L 816.0768 208.77984 
Q 816.0768 198.80064 798.2208 198.80064 
L 519.6672 198.80064 
Q 501.8112 198.80064 501.8112 208.77984 
L 501.8112 289.61136 
Q 501.8112 299.59056 519.6672 299.59056 
z
" clip-path="url(#pd6a0d8d52c)" style="fill: #ffffff; stroke: #111827; stroke-width: 1.6; stroke-linejoin: miter"/>
   </g>
   <g id="patch_13">
    <path d="M 519.6672 384.41376 
L 798.2208 384.41376 
Q 816.0768 384.41376 816.0768 374.43456 
L 816.0768 313.56144 
Q 816.0768 303.58224 798.2208 303.58224 
L 519.6672 303.58224 
Q 501.8112 303.58224 501.8112 313.56144 
L 501.8112 374.43456 
Q 501.8112 384.41376 519.6672 384.41376 
z
" clip-path="url(#pd6a0d8d52c)" style="fill: #ffffff; stroke: #111827; stroke-width: 1.6; stroke-linejoin: miter"/>
   </g>
   <g id="patch_14">
    <path d="M 73.2672 469.23696 
L 833.9328 469.23696 
Q 851.7888 469.23696 851.7888 459.25776 
L 851.7888 433.31184 
Q 851.7888 423.33264 833.9328 423.33264 
L 73.2672 423.33264 
Q 55.4112 423.33264 55.4112 433.31184 
L 55.4112 459.25776 
Q 55.4112 469.23696 73.2672 469.23696 
z
" clip-path="url(#pd6a0d8d52c)" style="fill: #ffffff; stroke: #111827; stroke-width: 1.6; stroke-linejoin: miter"/>
   </g>
   <g id="patch_15">
    <path d="M 658.944 206.784 
L 667.872 197.80272 
L 650.016 197.80272 
z
" clip-path="url(#pd6a0d8d52c)" style="fill: #111827; stroke: #111827; stroke-linejoin: miter"/>
   </g>
   <g id="patch_16">
    <path d="M 453.6 141.9192 
L 444.672 150.90048 
L 462.528 150.90048 
z
" clip-path="url(#pd6a0d8d52c)" style="fill: #111827; stroke: #111827; stroke-linejoin: miter"/>
   </g>
   <g id="patch_17">
    <path d="M 748.224 141.9192 
L 739.296 150.90048 
L 757.152 150.90048 
z
" clip-path="url(#pd6a0d8d52c)" style="fill: #111827; stroke: #111827; stroke-linejoin: miter"/>
   </g>
   <g id="patch_18">
    <path d="M 426.816 261.6696 
L 442.8864 266.6592 
L 442.8864 256.68 
z
" clip-path="url(#pd6a0d8d52c)" style="fill: #111827; stroke: #111827; stroke-linejoin: miter"/>
   </g>
   <g id="patch_19">
    <path d="M 248.256 256.68 
L 264.3264 261.6696 
L 264.3264 251.6904 
z
" clip-path="url(#pd6a0d8d52c)" style="fill: #111827; stroke: #111827; stroke-linejoin: miter"/>
   </g>
   <g id="line2d_1">
    <path d="M 310.752 111.9816 
L 310.752 174.3516 
L 658.944 174.3516 
L 658.944 206.784 
" clip-path="url(#pd6a0d8d52c)" style="fill: none; stroke: #111827; stroke-width: 1.8; stroke-linecap: square"/>
   </g>
   <g id="line2d_2">
    <path d="M 658.944 206.784 
L 658.944 171.8568 
L 453.6 171.8568 
L 453.6 141.9192 
" clip-path="url(#pd6a0d8d52c)" style="fill: none; stroke: #111827; stroke-width: 1.8; stroke-linecap: square"/>
   </g>
   <g id="line2d_3">
    <path d="M 658.944 206.784 
L 658.944 161.8776 
L 748.224 161.8776 
L 748.224 141.9192 
" clip-path="url(#pd6a0d8d52c)" style="fill: none; stroke: #111827; stroke-width: 1.8; stroke-linecap: square"/>
   </g>
   <g id="line2d_4">
    <path d="M 498.24 261.6696 
L 471.456 261.6696 
L 426.816 261.6696 
" clip-path="url(#pd6a0d8d52c)" style="fill: none; stroke: #111827; stroke-width: 1.8; stroke-linecap: square"/>
   </g>
   <g id="line2d_5">
    <path d="M 275.04 256.68 
L 248.256 256.68 
" clip-path="url(#pd6a0d8d52c)" style="fill: none; stroke: #111827; stroke-width: 1.8; stroke-linecap: square"/>
   </g>
   <g id="text_1">
    <!-- EC2 Snapshot Cleanup — Scheduled Lambda in VPC -->
    <g style="fill: #111827" transform="translate(134.189219 28.239425) scale(0.22 -0.22)">
     <defs>
      <path id="DejaVuSans-Bold-45" d="M 588 4666 
L 3834 4666 
L 3834 3756 
L 1791 3756 
L 1791 2888 
L 3713 2888 
L 3713 1978 
L 1791 1978 
L 1791 909 
L 3903 909 
L 3903 0 
L 588 0 
L 588 4666 
z
" transform="scale(0.015625)"/>
      <path id="DejaVuSans-Bold-43" d="M 4288 256 
Q 3956 84 3597 -3 
Q 3238 -91 2847 -91 
Q 1681 -91 1000 561 
Q 319 1213 319 2328 
Q 319 3447 1000 4098 
Q 1681 4750 2847 4750 
Q 3238 4750 3597 4662 
Q 3956 4575 4288 4403 
L 4288 3438 
Q 3953 3666 3628 3772 
Q 3303 3878 2944 3878 
Q 2300 3878 1931 3465 
Q 1563 3053 1563 2328 
Q 1563 1606 1931 1193 
Q 2300 781 2944 781 
Q 3303 781 3628 887 
Q 3953 994 4288 1222 
L 4288 256 
z
" transform="scale(0.015625)"/>
      <path id="DejaVuSans-Bold-32" d="M 1844 884 
L 3897 884 
L 3897 0 
L 506 0 
L 506 884 
L 2209 2388 
Q 2438 2594 2547 2791 
Q 2656 2988 2656 3200 
Q 2656 3528 2436 3728 
Q 2216 3928 1850 3928 
Q 1569 3928 1234 3808 
Q 900 3688 519 3450 
L 519 4475 
Q 925 4609 1322 4679 
Q 1719 4750 2100 4750 
Q 2938 4750 3402 4381 
Q 3866 4013 3866 3353 
Q 3866 2972 3669 2642 
Q 3472 2313 2841 1759 
L 1844 884 
z
" transform="scale(0.015625)"/>
      <path id="DejaVuSans-Bold-20" transform="scale(0.015625)"/>
      <path id="DejaVuSans-Bold-53" d="M 3834 4519 
L 3834 3531 
Q 3450 3703 3084 3790 
Q 2719 3878 2394 3878 
Q 1963 3878 1756 3759 
Q 1550 3641 1550 3391 
Q 1550 3203 1689 3098 
Q 1828 2994 2194 2919 
L 2706 2816 
Q 3484 2659 3812 2340 
Q 4141 2022 4141 1434 
Q 4141 663 3683 286 
Q 3225 -91 2284 -91 
Q 1841 -91 1394 -6 
Q 947 78 500 244 
L 500 1259 
Q 947 1022 1364 901 
Q 1781 781 2169 781 
Q 2563 781 2772 912 
Q 2981 1044 2981 1288 
Q 2981 1506 2839 1625 
Q 2697 1744 2272 1838 
L 1806 1941 
Q 1106 2091 782 2419 
Q 459 2747 459 3303 
Q 459 4000 909 4375 
Q 1359 4750 2203 4750 
Q 2588 4750 2994 4692 
Q 3400 4634 3834 4519 
z
" transform="scale(0.015625)"/>
      <path id="DejaVuSans-Bold-6e" d="M 4056 2131 
L 4056 0 
L 2931 0 
L 2931 347 
L 2931 1631 
Q 2931 2084 2911 2256 
Q 2891 2428 2841 2509 
Q 2775 2619 2662 2680 
Q 2550 2741 2406 2741 
Q 2056 2741 1856 2470 
Q 1656 2200 1656 1722 
L 1656 0 
L 538 0 
L 538 3500 
L 1656 3500 
L 1656 2988 
Q 1909 3294 2193 3439 
Q 2478 3584 2822 3584 
Q 3428 3584 3742 3212 
Q 4056 2841 4056 2131 
z
" transform="scale(0.015625)"/>
      <path id="DejaVuSans-Bold-61" d="M 2106 1575 
Q 1756 1575 1579 1456 
Q 1403 1338 1403 1106 
Q 1403 894 1545 773 
Q 1688 653 1941 653 
Q 2256 653 2472 879 
Q 2688 1106 2688 1447 
L 2688 1575 
L 2106 1575 
z
M 3816 1997 
L 3816 0 
L 2688 0 
L 2688 519 
Q 2463 200 2181 54 
Q 1900 -91 1497 -91 
Q 953 -91 614 226 
Q 275 544 275 1050 
Q 275 1666 698 1953 
Q 1122 2241 2028 2241 
L 2688 2241 
L 2688 2328 
Q 2688 2594 2478 2717 
Q 2269 2841 1825 2841 
Q 1466 2841 1156 2769 
Q 847 2697 581 2553 
L 581 3406 
Q 941 3494 1303 3539 
Q 1666 3584 2028 3584 
Q 2975 3584 3395 3211 
Q 3816 2838 3816 1997 
z
" transform="scale(0.015625)"/>
      <path id="DejaVuSans-Bold-70" d="M 1656 506 
L 1656 -1331 
L 538 -1331 
L 538 3500 
L 1656 3500 
L 1656 2988 
Q 1888 3294 2169 3439 
Q 2450 3584 2816 3584 
Q 3463 3584 3878 3070 
Q 4294 2556 4294 1747 
Q 4294 938 3878 423 
Q 3463 -91 2816 -91 
Q 2450 -91 2169 54 
Q 1888 200 1656 506 
z
M 2400 2772 
Q 2041 2772 1848 2508 
Q 1656 2244 1656 1747 
Q 1656 1250 1848 986 
Q 2041 722 2400 722 
Q 2759 722 2948 984 
Q 3138 1247 3138 1747 
Q 3138 2247 2948 2509 
Q 2759 2772 2400 2772 
z
" transform="scale(0.015625)"/>
      <path id="DejaVuSans-Bold-73" d="M 3272 3391 
L 3272 2541 
Q 2913 2691 2578 2766 
Q 2244 2841 1947 2841 
Q 1628 2841 1473 2761 
Q 1319 2681 1319 2516 
Q 1319 2381 1436 2309 
Q 1553 2238 1856 2203 
L 2053 2175 
Q 2913 2066 3209 1816 
Q 3506 1566 3506 1031 
Q 3506 472 3093 190 
Q 2681 -91 1863 -91 
Q 1516 -91 1145 -36 
Q 775 19 384 128 
L 384 978 
Q 719 816 1070 734 
Q 1422 653 1784 653 
Q 2113 653 2278 743 
Q 2444 834 2444 1013 
Q 2444 1163 2330 1236 
Q 2216 1309 1875 1350 
L 1678 1375 
Q 931 1469 631 1722 
Q 331 1975 331 2491 
Q 331 3047 712 3315 
Q 1094 3584 1881 3584 
Q 2191 3584 2531 3537 
Q 2872 3491 3272 3391 
z
" transform="scale(0.015625)"/>
      <path id="DejaVuSans-Bold-68" d="M 4056 2131 
L 4056 0 
L 2931 0 
L 2931 347 
L 2931 1625 
Q 2931 2084 2911 2256 
Q 2891 2428 2841 2509 
Q 2775 2619 2662 2680 
Q 2550 2741 2406 2741 
Q 2056 2741 1856 2470 
Q 1656 2200 1656 1722 
L 1656 0 
L 538 0 
L 538 4863 
L 1656 4863 
L 1656 2988 
Q 1909 3294 2193 3439 
Q 2478 3584 2822 3584 
Q 3428 3584 3742 3212 
Q 4056 2841 4056 2131 
z
" transform="scale(0.015625)"/>
      <path id="DejaVuSans-Bold-6f" d="M 2203 2784 
Q 1831 2784 1636 2517 
Q 1441 2250 1441 1747 
Q 1441 1244 1636 976 
Q 1831 709 2203 709 
Q 2569 709 2762 976 
Q 2956 1244 2956 1747 
Q 2956 2250 2762 2517 
Q 2569 2784 2203 2784 
z
M 2203 3584 
Q 3106 3584 3614 3096 
Q 4122 2609 4122 1747 
Q 4122 884 3614 396 
Q 3106 -91 2203 -91 
Q 1297 -91 786 396 
Q 275 884 275 1747 
Q 275 2609 786 3096 
Q 1297 3584 2203 3584 
z
" transform="scale(0.015625)"/>
      <path id="DejaVuSans-Bold-74" d="M 1759 4494 
L 1759 3500 
L 2913 3500 
L 2913 2700 
L 1759 2700 
L 1759 1216 
Q 1759 972 1856 886 
Q 1953 800 2241 800 
L 2816 800 
L 2816 0 
L 1856 0 
Q 1194 0 917 276 
Q 641 553 641 1216 
L 641 2700 
L 84 2700 
L 84 3500 
L 641 3500 
L 641 4494 
L 1759 4494 
z
" transform="scale(0.015625)"/>
      <path id="DejaVuSans-Bold-6c" d="M 538 4863 
L 1656 4863 
L 1656 0 
L 538 0 
L 538 4863 
z
" transform="scale(0.015625)"/>
      <path id="DejaVuSans-Bold-65" d="M 4031 1759 
L 4031 1441 
L 1416 1441 
Q 1456 1047 1700 850 
Q 1944 653 2381 653 
Q 2734 653 3104 758 
Q 3475 863 3866 1075 
L 3866 213 
Q 3469 63 3072 -14 
Q 2675 -91 2278 -91 
Q 1328 -91 801 392 
Q 275 875 275 1747 
Q 275 2603 792 3093 
Q 1309 3584 2216 3584 
Q 3041 3584 3536 3087 
Q 4031 2591 4031 1759 
z
M 2881 2131 
Q 2881 2450 2695 2645 
Q 2509 2841 2209 2841 
Q 1884 2841 1681 2658 
Q 1478 2475 1428 2131 
L 2881 2131 
z
" transform="scale(0.015625)"/>
      <path id="DejaVuSans-Bold-75" d="M 500 1363 
L 500 3500 
L 1625 3500 
L 1625 3150 
Q 1625 2866 1622 2436 
Q 1619 2006 1619 1863 
Q 1619 1441 1641 1255 
Q 1663 1069 1716 984 
Q 1784 875 1895 815 
Q 2006 756 2150 756 
Q 2500 756 2700 1025 
Q 2900 1294 2900 1772 
L 2900 3500 
L 4019 3500 
L 4019 0 
L 2900 0 
L 2900 506 
Q 2647 200 2364 54 
Q 2081 -91 1741 -91 
Q 1134 -91 817 281 
Q 500 653 500 1363 
z
" transform="scale(0.015625)"/>
      <path id="DejaVuSans-Bold-2014" d="M 344 2156 
L 6056 2156 
L 6056 1350 
L 344 1350 
L 344 2156 
z
" transform="scale(0.015625)"/>
      <path id="DejaVuSans-Bold-63" d="M 3366 3391 
L 3366 2478 
Q 3138 2634 2908 2709 
Q 2678 2784 2431 2784 
Q 1963 2784 1702 2511 
Q 1441 2238 1441 1747 
Q 1441 1256 1702 982 
Q 1963 709 2431 709 
Q 2694 709 2930 787 
Q 3166 866 3366 1019 
L 3366 103 
Q 3103 6 2833 -42 
Q 2563 -91 2291 -91 
Q 1344 -91 809 395 
Q 275 881 275 1747 
Q 275 2613 809 3098 
Q 1344 3584 2291 3584 
Q 2566 3584 2833 3536 
Q 3100 3488 3366 3391 
z
" transform="scale(0.015625)"/>
      <path id="DejaVuSans-Bold-64" d="M 2919 2988 
L 2919 4863 
L 4044 4863 
L 4044 0 
L 2919 0 
L 2919 506 
Q 2688 197 2409 53 
Q 2131 -91 1766 -91 
Q 1119 -91 703 423 
Q 288 938 288 1747 
Q 288 2556 703 3070 
Q 1119 3584 1766 3584 
Q 2128 3584 2408 3439 
Q 2688 3294 2919 2988 
z
M 2181 722 
Q 2541 722 2730 984 
Q 2919 1247 2919 1747 
Q 2919 2247 2730 2509 
Q 2541 2772 2181 2772 
Q 1825 2772 1636 2509 
Q 1447 2247 1447 1747 
Q 1447 1247 1636 984 
Q 1825 722 2181 722 
z
" transform="scale(0.015625)"/>
      <path id="DejaVuSans-Bold-4c" d="M 588 4666 
L 1791 4666 
L 1791 909 
L 3903 909 
L 3903 0 
L 588 0 
L 588 4666 
z
" transform="scale(0.015625)"/>
      <path id="DejaVuSans-Bold-6d" d="M 3781 2919 
Q 3994 3244 4286 3414 
Q 4578 3584 4928 3584 
Q 5531 3584 5847 3212 
Q 6163 2841 6163 2131 
L 6163 0 
L 5038 0 
L 5038 1825 
Q 5041 1866 5042 1909 
Q 5044 1953 5044 2034 
Q 5044 2406 4934 2573 
Q 4825 2741 4581 2741 
Q 4263 2741 4089 2478 
Q 3916 2216 3909 1719 
L 3909 0 
L 2784 0 
L 2784 1825 
Q 2784 2406 2684 2573 
Q 2584 2741 2328 2741 
Q 2006 2741 1831 2477 
Q 1656 2213 1656 1722 
L 1656 0 
L 531 0 
L 531 3500 
L 1656 3500 
L 1656 2988 
Q 1863 3284 2130 3434 
Q 2397 3584 2719 3584 
Q 3081 3584 3359 3409 
Q 3638 3234 3781 2919 
z
" transform="scale(0.015625)"/>
      <path id="DejaVuSans-Bold-62" d="M 2400 722 
Q 2759 722 2948 984 
Q 3138 1247 3138 1747 
Q 3138 2247 2948 2509 
Q 2759 2772 2400 2772 
Q 2041 2772 1848 2508 
Q 1656 2244 1656 1747 
Q 1656 1250 1848 986 
Q 2041 722 2400 722 
z
M 1656 2988 
Q 1888 3294 2169 3439 
Q 2450 3584 2816 3584 
Q 3463 3584 3878 3070 
Q 4294 2556 4294 1747 
Q 4294 938 3878 423 
Q 3463 -91 2816 -91 
Q 2450 -91 2169 54 
Q 1888 200 1656 506 
L 1656 0 
L 538 0 
L 538 4863 
L 1656 4863 
L 1656 2988 
z
" transform="scale(0.015625)"/>
      <path id="DejaVuSans-Bold-69" d="M 538 3500 
L 1656 3500 
L 1656 0 
L 538 0 
L 538 3500 
z
M 538 4863 
L 1656 4863 
L 1656 3950 
L 538 3950 
L 538 4863 
z
" transform="scale(0.015625)"/>
      <path id="DejaVuSans-Bold-56" d="M 31 4666 
L 1241 4666 
L 2478 1222 
L 3713 4666 
L 4922 4666 
L 3194 0 
L 1759 0 
L 31 4666 
z
" transform="scale(0.015625)"/>
      <path id="DejaVuSans-Bold-50" d="M 588 4666 
L 2584 4666 
Q 3475 4666 3951 4270 
Q 4428 3875 4428 3144 
Q 4428 2409 3951 2014 
Q 3475 1619 2584 1619 
L 1791 1619 
L 1791 0 
L 588 0 
L 588 4666 
z
M 1791 3794 
L 1791 2491 
L 2456 2491 
Q 2806 2491 2997 2661 
Q 3188 2831 3188 3144 
Q 3188 3456 2997 3625 
Q 2806 3794 2456 3794 
L 1791 3794 
z
" transform="scale(0.015625)"/>
     </defs>
     <use xlink:href="#DejaVuSans-Bold-45"/>
     <use xlink:href="#DejaVuSans-Bold-43" x="68.310547"/>
     <use xlink:href="#DejaVuSans-Bold-32" x="141.699219"/>
     <use xlink:href="#DejaVuSans-Bold-20" x="211.279297"/>
     <use xlink:href="#DejaVuSans-Bold-53" x="246.09375"/>
     <use xlink:href="#DejaVuSans-Bold-6e" x="318.115234"/>
     <use xlink:href="#DejaVuSans-Bold-61" x="389.306641"/>
     <use xlink:href="#DejaVuSans-Bold-70" x="456.787109"/>
     <use xlink:href="#DejaVuSans-Bold-73" x="528.369141"/>
     <use xlink:href="#DejaVuSans-Bold-68" x="587.890625"/>
     <use xlink:href="#DejaVuSans-Bold-6f" x="659.082031"/>
     <use xlink:href="#DejaVuSans-Bold-74" x="727.783203"/>
     <use xlink:href="#DejaVuSans-Bold-20" x="775.585938"/>
     <use xlink:href="#DejaVuSans-Bold-43" x="810.400391"/>
     <use xlink:href="#DejaVuSans-Bold-6c" x="883.789062"/>
     <use xlink:href="#DejaVuSans-Bold-65" x="918.066406"/>
     <use xlink:href="#DejaVuSans-Bold-61" x="985.888672"/>
     <use xlink:href="#DejaVuSans-Bold-6e" x="1053.369141"/>
     <use xlink:href="#DejaVuSans-Bold-75" x="1124.560547"/>
     <use xlink:href="#DejaVuSans-Bold-70" x="1195.751953"/>
     <use xlink:href="#DejaVuSans-Bold-20" x="1267.333984"/>
     <use xlink:href="#DejaVuSans-Bold-2014" x="1302.148438"/>
     <use xlink:href="#DejaVuSans-Bold-20" x="1402.148438"/>
     <use xlink:href="#DejaVuSans-Bold-53" x="1436.962891"/>
     <use xlink:href="#DejaVuSans-Bold-63" x="1508.984375"/>
     <use xlink:href="#DejaVuSans-Bold-68" x="1568.261719"/>
     <use xlink:href="#DejaVuSans-Bold-65" x="1639.453125"/>
     <use xlink:href="#DejaVuSans-Bold-64" x="1707.275391"/>
     <use xlink:href="#DejaVuSans-Bold-75" x="1778.857422"/>
     <use xlink:href="#DejaVuSans-Bold-6c" x="1850.048828"/>
     <use xlink:href="#DejaVuSans-Bold-65" x="1884.326172"/>
     <use xlink:href="#DejaVuSans-Bold-64" x="1952.148438"/>
     <use xlink:href="#DejaVuSans-Bold-20" x="2023.730469"/>
     <use xlink:href="#DejaVuSans-Bold-4c" x="2058.544922"/>
     <use xlink:href="#DejaVuSans-Bold-61" x="2122.265625"/>
     <use xlink:href="#DejaVuSans-Bold-6d" x="2189.746094"/>
     <use xlink:href="#DejaVuSans-Bold-62" x="2293.945312"/>
     <use xlink:href="#DejaVuSans-Bold-64" x="2365.527344"/>
     <use xlink:href="#DejaVuSans-Bold-61" x="2437.109375"/>
     <use xlink:href="#DejaVuSans-Bold-20" x="2504.589844"/>
     <use xlink:href="#DejaVuSans-Bold-69" x="2539.404297"/>
     <use xlink:href="#DejaVuSans-Bold-6e" x="2573.681641"/>
     <use xlink:href="#DejaVuSans-Bold-20" x="2644.873047"/>
     <use xlink:href="#DejaVuSans-Bold-56" x="2679.6875"/>
     <use xlink:href="#DejaVuSans-Bold-50" x="2757.080078"/>
     <use xlink:href="#DejaVuSans-Bold-43" x="2830.371094"/>
    </g>
   </g>
   <g id="text_2">
    <!-- Simple architecture view (clean flow, minimal clutter) -->
    <g style="fill: #374151" transform="translate(292.6725 40.44885) scale(0.12 -0.12)">
     <defs>
      <path id="DejaVuSans-53" d="M 3425 4513 
L 3425 3897 
Q 3066 4069 2747 4153 
Q 2428 4238 2131 4238 
Q 1616 4238 1336 4038 
Q 1056 3838 1056 3469 
Q 1056 3159 1242 3001 
Q 1428 2844 1947 2747 
L 2328 2669 
Q 3034 2534 3370 2195 
Q 3706 1856 3706 1288 
Q 3706 609 3251 259 
Q 2797 -91 1919 -91 
Q 1588 -91 1214 -16 
Q 841 59 441 206 
L 441 856 
Q 825 641 1194 531 
Q 1563 422 1919 422 
Q 2459 422 2753 634 
Q 3047 847 3047 1241 
Q 3047 1584 2836 1778 
Q 2625 1972 2144 2069 
L 1759 2144 
Q 1053 2284 737 2584 
Q 422 2884 422 3419 
Q 422 4038 858 4394 
Q 1294 4750 2059 4750 
Q 2388 4750 2728 4690 
Q 3069 4631 3425 4513 
z
" transform="scale(0.015625)"/>
      <path id="DejaVuSans-69" d="M 603 3500 
L 1178 3500 
L 1178 0 
L 603 0 
L 603 3500 
z
M 603 4863 
L 1178 4863 
L 1178 4134 
L 603 4134 
L 603 4863 
z
" transform="scale(0.015625)"/>
      <path id="DejaVuSans-6d" d="M 3328 2828 
Q 3544 3216 3844 3400 
Q 4144 3584 4550 3584 
Q 5097 3584 5394 3201 
Q 5691 2819 5691 2113 
L 5691 0 
L 5113 0 
L 5113 2094 
Q 5113 2597 4934 2840 
Q 4756 3084 4391 3084 
Q 3944 3084 3684 2787 
Q 3425 2491 3425 1978 
L 3425 0 
L 2847 0 
L 2847 2094 
Q 2847 2600 2669 2842 
Q 2491 3084 2119 3084 
Q 1678 3084 1418 2786 
Q 1159 2488 1159 1978 
L 1159 0 
L 581 0 
L 581 3500 
L 1159 3500 
L 1159 2956 
Q 1356 3278 1631 3431 
Q 1906 3584 2284 3584 
Q 2666 3584 2933 3390 
Q 3200 3197 3328 2828 
z
" transform="scale(0.015625)"/>
      <path id="DejaVuSans-70" d="M 1159 525 
L 1159 -1331 
L 581 -1331 
L 581 3500 
L 1159 3500 
L 1159 2969 
Q 1341 3281 1617 3432 
Q 1894 3584 2278 3584 
Q 2916 3584 3314 3078 
Q 3713 2572 3713 1747 
Q 3713 922 3314 415 
Q 2916 -91 2278 -91 
Q 1894 -91 1617 61 
Q 1341 213 1159 525 
z
M 3116 1747 
Q 3116 2381 2855 2742 
Q 2594 3103 2138 3103 
Q 1681 3103 1420 2742 
Q 1159 2381 1159 1747 
Q 1159 1113 1420 752 
Q 1681 391 2138 391 
Q 2594 391 2855 752 
Q 3116 1113 3116 1747 
z
" transform="scale(0.015625)"/>
      <path id="DejaVuSans-6c" d="M 603 4863 
L 1178 4863 
L 1178 0 
L 603 0 
L 603 4863 
z
" transform="scale(0.015625)"/>
      <path id="DejaVuSans-65" d="M 3597 1894 
L 3597 1613 
L 953 1613 
Q 991 1019 1311 708 
Q 1631 397 2203 397 
Q 2534 397 2845 478 
Q 3156 559 3463 722 
L 3463 178 
Q 3153 47 2828 -22 
Q 2503 -91 2169 -91 
Q 1331 -91 842 396 
Q 353 884 353 1716 
Q 353 2575 817 3079 
Q 1281 3584 2069 3584 
Q 2775 3584 3186 3129 
Q 3597 2675 3597 1894 
z
M 3022 2063 
Q 3016 2534 2758 2815 
Q 2500 3097 2075 3097 
Q 1594 3097 1305 2825 
Q 1016 2553 972 2059 
L 3022 2063 
z
" transform="scale(0.015625)"/>
      <path id="DejaVuSans-20" transform="scale(0.015625)"/>
      <path id="DejaVuSans-61" d="M 2194 1759 
Q 1497 1759 1228 1600 
Q 959 1441 959 1056 
Q 959 750 1161 570 
Q 1363 391 1709 391 
Q 2188 391 2477 730 
Q 2766 1069 2766 1631 
L 2766 1759 
L 2194 1759 
z
M 3341 1997 
L 3341 0 
L 2766 0 
L 2766 531 
Q 2569 213 2275 61 
Q 1981 -91 1556 -91 
Q 1019 -91 701 211 
Q 384 513 384 1019 
Q 384 1609 779 1909 
Q 1175 2209 1959 2209 
L 2766 2209 
L 2766 2266 
Q 2766 2663 2505 2880 
Q 2244 3097 1772 3097 
Q 1472 3097 1187 3025 
Q 903 2953 641 2809 
L 641 3341 
Q 956 3463 1253 3523 
Q 1550 3584 1831 3584 
Q 2591 3584 2966 3190 
Q 3341 2797 3341 1997 
z
" transform="scale(0.015625)"/>
      <path id="DejaVuSans-72" d="M 2631 2963 
Q 2534 3019 2420 3045 
Q 2306 3072 2169 3072 
Q 1681 3072 1420 2755 
Q 1159 2438 1159 1844 
L 1159 0 
L 581 0 
L 581 3500 
L 1159 3500 
L 1159 2956 
Q 1341 3275 1631 3429 
Q 1922 3584 2338 3584 
Q 2397 3584 2469 3576 
Q 2541 3569 2628 3553 
L 2631 2963 
z
" transform="scale(0.015625)"/>
      <path id="DejaVuSans-63" d="M 3122 3366 
L 3122 2828 
Q 2878 2963 2633 3030 
Q 2388 3097 2138 3097 
Q 1578 3097 1268 2742 
Q 959 2388 959 1747 
Q 959 1106 1268 751 
Q 1578 397 2138 397 
Q 2388 397 2633 464 
Q 2878 531 3122 666 
L 3122 134 
Q 2881 22 2623 -34 
Q 2366 -91 2075 -91 
Q 1284 -91 818 406 
Q 353 903 353 1747 
Q 353 2603 823 3093 
Q 1294 3584 2113 3584 
Q 2378 3584 2631 3529 
Q 2884 3475 3122 3366 
z
" transform="scale(0.015625)"/>
      <path id="DejaVuSans-68" d="M 3513 2113 
L 3513 0 
L 2938 0 
L 2938 2094 
Q 2938 2591 2744 2837 
Q 2550 3084 2163 3084 
Q 1697 3084 1428 2787 
Q 1159 2491 1159 1978 
L 1159 0 
L 581 0 
L 581 4863 
L 1159 4863 
L 1159 2956 
Q 1366 3272 1645 3428 
Q 1925 3584 2291 3584 
Q 2894 3584 3203 3211 
Q 3513 2838 3513 2113 
z
" transform="scale(0.015625)"/>
      <path id="DejaVuSans-74" d="M 1172 4494 
L 1172 3500 
L 2356 3500 
L 2356 3053 
L 1172 3053 
L 1172 1153 
Q 1172 725 1289 603 
Q 1406 481 1766 481 
L 2356 481 
L 2356 0 
L 1766 0 
Q 1100 0 847 248 
Q 594 497 594 1153 
L 594 3053 
L 172 3053 
L 172 3500 
L 594 3500 
L 594 4494 
L 1172 4494 
z
" transform="scale(0.015625)"/>
      <path id="DejaVuSans-75" d="M 544 1381 
L 544 3500 
L 1119 3500 
L 1119 1403 
Q 1119 906 1312 657 
Q 1506 409 1894 409 
Q 2359 409 2629 706 
Q 2900 1003 2900 1516 
L 2900 3500 
L 3475 3500 
L 3475 0 
L 2900 0 
L 2900 538 
Q 2691 219 2414 64 
Q 2138 -91 1772 -91 
Q 1169 -91 856 284 
Q 544 659 544 1381 
z
M 1991 3584 
L 1991 3584 
z
" transform="scale(0.015625)"/>
      <path id="DejaVuSans-76" d="M 191 3500 
L 800 3500 
L 1894 563 
L 2988 3500 
L 3597 3500 
L 2284 0 
L 1503 0 
L 191 3500 
z
" transform="scale(0.015625)"/>
      <path id="DejaVuSans-77" d="M 269 3500 
L 844 3500 
L 1563 769 
L 2278 3500 
L 2956 3500 
L 3675 769 
L 4391 3500 
L 4966 3500 
L 4050 0 
L 3372 0 
L 2619 2869 
L 1863 0 
L 1184 0 
L 269 3500 
z
" transform="scale(0.015625)"/>
      <path id="DejaVuSans-28" d="M 1984 4856 
Q 1566 4138 1362 3434 
Q 1159 2731 1159 2009 
Q 1159 1288 1364 580 
Q 1569 -128 1984 -844 
L 1484 -844 
Q 1016 -109 783 600 
Q 550 1309 550 2009 
Q 550 2706 781 3412 
Q 1013 4119 1484 4856 
L 1984 4856 
z
" transform="scale(0.015625)"/>
      <path id="DejaVuSans-6e" d="M 3513 2113 
L 3513 0 
L 2938 0 
L 2938 2094 
Q 2938 2591 2744 2837 
Q 2550 3084 2163 3084 
Q 1697 3084 1428 2787 
Q 1159 2491 1159 1978 
L 1159 0 
L 581 0 
L 581 3500 
L 1159 3500 
L 1159 2956 
Q 1366 3272 1645 3428 
Q 1925 3584 2291 3584 
Q 2894 3584 3203 3211 
Q 3513 2838 3513 2113 
z
" transform="scale(0.015625)"/>
      <path id="DejaVuSans-66" d="M 2375 4863 
L 2375 4384 
L 1825 4384 
Q 1516 4384 1395 4259 
Q 1275 4134 1275 3809 
L 1275 3500 
L 2222 3500 
L 2222 3053 
L 1275 3053 
L 1275 0 
L 697 0 
L 697 3053 
L 147 3053 
L 147 3500 
L 697 3500 
L 697 3744 
Q 697 4328 969 4595 
Q 1241 4863 1831 4863 
L 2375 4863 
z
" transform="scale(0.015625)"/>
      <path id="DejaVuSans-6f" d="M 1959 3097 
Q 1497 3097 1228 2736 
Q 959 2375 959 1747 
Q 959 1119 1226 758 
Q 1494 397 1959 397 
Q 2419 397 2687 759 
Q 2956 1122 2956 1747 
Q 2956 2369 2687 2733 
Q 2419 3097 1959 3097 
z
M 1959 3584 
Q 2709 3584 3137 3096 
Q 3566 2609 3566 1747 
Q 3566 888 3137 398 
Q 2709 -91 1959 -91 
Q 1206 -91 779 398 
Q 353 888 353 1747 
Q 353 2609 779 3096 
Q 1206 3584 1959 3584 
z
" transform="scale(0.015625)"/>
      <path id="DejaVuSans-2c" d="M 750 794 
L 1409 794 
L 1409 256 
L 897 -744 
L 494 -744 
L 750 256 
L 750 794 
z
" transform="scale(0.015625)"/>
      <path id="DejaVuSans-29" d="M 513 4856 
L 1013 4856 
Q 1481 4119 1714 3412 
Q 1947 2706 1947 2009 
Q 1947 1309 1714 600 
Q 1481 -109 1013 -844 
L 513 -844 
Q 928 -128 1133 580 
Q 1338 1288 1338 2009 
Q 1338 2731 1133 3434 
Q 928 4138 513 4856 
z
" transform="scale(0.015625)"/>
     </defs>
     <use xlink:href="#DejaVuSans-53"/>
     <use xlink:href="#DejaVuSans-69" x="63.476562"/>
     <use xlink:href="#DejaVuSans-6d" x="91.259766"/>
     <use xlink:href="#DejaVuSans-70" x="188.671875"/>
     <use xlink:href="#DejaVuSans-6c" x="252.148438"/>
     <use xlink:href="#DejaVuSans-65" x="279.931641"/>
     <use xlink:href="#DejaVuSans-20" x="341.455078"/>
     <use xlink:href="#DejaVuSans-61" x="373.242188"/>
     <use xlink:href="#DejaVuSans-72" x="434.521484"/>
     <use xlink:href="#DejaVuSans-63" x="473.384766"/>
     <use xlink:href="#DejaVuSans-68" x="528.365234"/>
     <use xlink:href="#DejaVuSans-69" x="591.744141"/>
     <use xlink:href="#DejaVuSans-74" x="619.527344"/>
     <use xlink:href="#DejaVuSans-65" x="658.736328"/>
     <use xlink:href="#DejaVuSans-63" x="720.259766"/>
     <use xlink:href="#DejaVuSans-74" x="775.240234"/>
     <use xlink:href="#DejaVuSans-75" x="814.449219"/>
     <use xlink:href="#DejaVuSans-72" x="877.828125"/>
     <use xlink:href="#DejaVuSans-65" x="916.691406"/>
     <use xlink:href="#DejaVuSans-20" x="978.214844"/>
     <use xlink:href="#DejaVuSans-76" x="1010.001953"/>
     <use xlink:href="#DejaVuSans-69" x="1069.181641"/>
     <use xlink:href="#DejaVuSans-65" x="1096.964844"/>
     <use xlink:href="#DejaVuSans-77" x="1158.488281"/>
     <use xlink:href="#DejaVuSans-20" x="1240.275391"/>
     <use xlink:href="#DejaVuSans-28" x="1272.0625"/>
     <use xlink:href="#DejaVuSans-63" x="1311.076172"/>
     <use xlink:href="#DejaVuSans-6c" x="1366.056641"/>
     <use xlink:href="#DejaVuSans-65" x="1393.839844"/>
     <use xlink:href="#DejaVuSans-61" x="1455.363281"/>
     <use xlink:href="#DejaVuSans-6e" x="1516.642578"/>
     <use xlink:href="#DejaVuSans-20" x="1580.021484"/>
     <use xlink:href="#DejaVuSans-66" x="1611.808594"/>
     <use xlink:href="#DejaVuSans-6c" x="1647.013672"/>
     <use xlink:href="#DejaVuSans-6f" x="1674.796875"/>
     <use xlink:href="#DejaVuSans-77" x="1735.978516"/>
     <use xlink:href="#DejaVuSans-2c" x="1817.765625"/>
     <use xlink:href="#DejaVuSans-20" x="1849.552734"/>
     <use xlink:href="#DejaVuSans-6d" x="1881.339844"/>
     <use xlink:href="#DejaVuSans-69" x="1978.751953"/>
     <use xlink:href="#DejaVuSans-6e" x="2006.535156"/>
     <use xlink:href="#DejaVuSans-69" x="2069.914062"/>
     <use xlink:href="#DejaVuSans-6d" x="2097.697266"/>
     <use xlink:href="#DejaVuSans-61" x="2195.109375"/>
     <use xlink:href="#DejaVuSans-6c" x="2256.388672"/>
     <use xlink:href="#DejaVuSans-20" x="2284.171875"/>
     <use xlink:href="#DejaVuSans-63" x="2315.958984"/>
     <use xlink:href="#DejaVuSans-6c" x="2370.939453"/>
     <use xlink:href="#DejaVuSans-75" x="2398.722656"/>
     <use xlink:href="#DejaVuSans-74" x="2462.101562"/>
     <use xlink:href="#DejaVuSans-74" x="2501.310547"/>
     <use xlink:href="#DejaVuSans-65" x="2540.519531"/>
     <use xlink:href="#DejaVuSans-72" x="2602.042969"/>
     <use xlink:href="#DejaVuSans-29" x="2643.15625"/>
    </g>
   </g>
   <g id="text_3">
    <!-- AWS Account / Region -->
    <g style="fill: #111827" transform="translate(56.304 34.224553) scale(0.135 -0.135)">
     <defs>
      <path id="DejaVuSans-Bold-41" d="M 3419 850 
L 1538 850 
L 1241 0 
L 31 0 
L 1759 4666 
L 3194 4666 
L 4922 0 
L 3713 0 
L 3419 850 
z
M 1838 1716 
L 3116 1716 
L 2478 3572 
L 1838 1716 
z
" transform="scale(0.015625)"/>
      <path id="DejaVuSans-Bold-57" d="M 191 4666 
L 1344 4666 
L 2150 1275 
L 2950 4666 
L 4109 4666 
L 4909 1275 
L 5716 4666 
L 6859 4666 
L 5759 0 
L 4372 0 
L 3525 3547 
L 2688 0 
L 1300 0 
L 191 4666 
z
" transform="scale(0.015625)"/>
      <path id="DejaVuSans-Bold-2f" d="M 1644 4666 
L 2338 4666 
L 691 -594 
L 0 -594 
L 1644 4666 
z
" transform="scale(0.015625)"/>
      <path id="DejaVuSans-Bold-52" d="M 2297 2597 
Q 2675 2597 2839 2737 
Q 3003 2878 3003 3200 
Q 3003 3519 2839 3656 
Q 2675 3794 2297 3794 
L 1791 3794 
L 1791 2597 
L 2297 2597 
z
M 1791 1766 
L 1791 0 
L 588 0 
L 588 4666 
L 2425 4666 
Q 3347 4666 3776 4356 
Q 4206 4047 4206 3378 
Q 4206 2916 3982 2619 
Q 3759 2322 3309 2181 
Q 3556 2125 3751 1926 
Q 3947 1728 4147 1325 
L 4800 0 
L 3519 0 
L 2950 1159 
Q 2778 1509 2601 1637 
Q 2425 1766 2131 1766 
L 1791 1766 
z
" transform="scale(0.015625)"/>
      <path id="DejaVuSans-Bold-67" d="M 2919 594 
Q 2688 288 2409 144 
Q 2131 0 1766 0 
Q 1125 0 706 504 
Q 288 1009 288 1791 
Q 288 2575 706 3076 
Q 1125 3578 1766 3578 
Q 2131 3578 2409 3434 
Q 2688 3291 2919 2981 
L 2919 3500 
L 4044 3500 
L 4044 353 
Q 4044 -491 3511 -936 
Q 2978 -1381 1966 -1381 
Q 1638 -1381 1331 -1331 
Q 1025 -1281 716 -1178 
L 716 -306 
Q 1009 -475 1290 -558 
Q 1572 -641 1856 -641 
Q 2406 -641 2662 -400 
Q 2919 -159 2919 353 
L 2919 594 
z
M 2181 2772 
Q 1834 2772 1640 2515 
Q 1447 2259 1447 1791 
Q 1447 1309 1634 1061 
Q 1822 813 2181 813 
Q 2531 813 2725 1069 
Q 2919 1325 2919 1791 
Q 2919 2259 2725 2515 
Q 2531 2772 2181 2772 
z
" transform="scale(0.015625)"/>
     </defs>
     <use xlink:href="#DejaVuSans-Bold-41"/>
     <use xlink:href="#DejaVuSans-Bold-57" x="72.892578"/>
     <use xlink:href="#DejaVuSans-Bold-53" x="183.195312"/>
     <use xlink:href="#DejaVuSans-Bold-20" x="255.216797"/>
     <use xlink:href="#DejaVuSans-Bold-41" x="290.03125"/>
     <use xlink:href="#DejaVuSans-Bold-63" x="367.423828"/>
     <use xlink:href="#DejaVuSans-Bold-63" x="426.701172"/>
     <use xlink:href="#DejaVuSans-Bold-6f" x="485.978516"/>
     <use xlink:href="#DejaVuSans-Bold-75" x="554.679688"/>
     <use xlink:href="#DejaVuSans-Bold-6e" x="625.871094"/>
     <use xlink:href="#DejaVuSans-Bold-74" x="697.0625"/>
     <use xlink:href="#DejaVuSans-Bold-20" x="744.865234"/>
     <use xlink:href="#DejaVuSans-Bold-2f" x="779.679688"/>
     <use xlink:href="#DejaVuSans-Bold-20" x="816.203125"/>
     <use xlink:href="#DejaVuSans-Bold-52" x="851.017578"/>
     <use xlink:href="#DejaVuSans-Bold-65" x="928.019531"/>
     <use xlink:href="#DejaVuSans-Bold-67" x="995.841797"/>
     <use xlink:href="#DejaVuSans-Bold-69" x="1067.423828"/>
     <use xlink:href="#DejaVuSans-Bold-6f" x="1101.701172"/>
     <use xlink:href="#DejaVuSans-Bold-6e" x="1170.402344"/>
    </g>
   </g>
   <g id="text_4">
    <!-- Managed Services (outside VPC) -->
    <g style="fill: #111827" transform="translate(83.088 54.182953) scale(0.135 -0.135)">
     <defs>
      <path id="DejaVuSans-Bold-4d" d="M 588 4666 
L 2119 4666 
L 3181 2169 
L 4250 4666 
L 5778 4666 
L 5778 0 
L 4641 0 
L 4641 3413 
L 3566 897 
L 2803 897 
L 1728 3413 
L 1728 0 
L 588 0 
L 588 4666 
z
" transform="scale(0.015625)"/>
      <path id="DejaVuSans-Bold-72" d="M 3138 2547 
Q 2991 2616 2845 2648 
Q 2700 2681 2553 2681 
Q 2122 2681 1889 2404 
Q 1656 2128 1656 1613 
L 1656 0 
L 538 0 
L 538 3500 
L 1656 3500 
L 1656 2925 
Q 1872 3269 2151 3426 
Q 2431 3584 2822 3584 
Q 2878 3584 2943 3579 
Q 3009 3575 3134 3559 
L 3138 2547 
z
" transform="scale(0.015625)"/>
      <path id="DejaVuSans-Bold-76" d="M 97 3500 
L 1216 3500 
L 2088 1081 
L 2956 3500 
L 4078 3500 
L 2700 0 
L 1472 0 
L 97 3500 
z
" transform="scale(0.015625)"/>
      <path id="DejaVuSans-Bold-28" d="M 2413 -844 
L 1484 -844 
Q 1006 -72 778 623 
Q 550 1319 550 2003 
Q 550 2688 779 3389 
Q 1009 4091 1484 4856 
L 2413 4856 
Q 2013 4116 1813 3408 
Q 1613 2700 1613 2009 
Q 1613 1319 1811 609 
Q 2009 -100 2413 -844 
z
" transform="scale(0.015625)"/>
      <path id="DejaVuSans-Bold-29" d="M 513 -844 
Q 913 -100 1113 609 
Q 1313 1319 1313 2009 
Q 1313 2700 1113 3408 
Q 913 4116 513 4856 
L 1441 4856 
Q 1916 4091 2145 3389 
Q 2375 2688 2375 2003 
Q 2375 1319 2147 623 
Q 1919 -72 1441 -844 
L 513 -844 
z
" transform="scale(0.015625)"/>
     </defs>
     <use xlink:href="#DejaVuSans-Bold-4d"/>
     <use xlink:href="#DejaVuSans-Bold-61" x="99.511719"/>
     <use xlink:href="#DejaVuSans-Bold-6e" x="166.992188"/>
     <use xlink:href="#DejaVuSans-Bold-61" x="238.183594"/>
     <use xlink:href="#DejaVuSans-Bold-67" x="305.664062"/>
     <use xlink:href="#DejaVuSans-Bold-65" x="377.246094"/>
     <use xlink:href="#DejaVuSans-Bold-64" x="445.068359"/>
     <use xlink:href="#DejaVuSans-Bold-20" x="516.650391"/>
     <use xlink:href="#DejaVuSans-Bold-53" x="551.464844"/>
     <use xlink:href="#DejaVuSans-Bold-65" x="623.486328"/>
     <use xlink:href="#DejaVuSans-Bold-72" x="691.308594"/>
     <use xlink:href="#DejaVuSans-Bold-76" x="740.625"/>
     <use xlink:href="#DejaVuSans-Bold-69" x="805.810547"/>
     <use xlink:href="#DejaVuSans-Bold-63" x="840.087891"/>
     <use xlink:href="#DejaVuSans-Bold-65" x="899.365234"/>
     <use xlink:href="#DejaVuSans-Bold-73" x="967.1875"/>
     <use xlink:href="#DejaVuSans-Bold-20" x="1026.708984"/>
     <use xlink:href="#DejaVuSans-Bold-28" x="1061.523438"/>
     <use xlink:href="#DejaVuSans-Bold-6f" x="1107.226562"/>
     <use xlink:href="#DejaVuSans-Bold-75" x="1175.927734"/>
     <use xlink:href="#DejaVuSans-Bold-74" x="1247.119141"/>
     <use xlink:href="#DejaVuSans-Bold-73" x="1294.921875"/>
     <use xlink:href="#DejaVuSans-Bold-69" x="1354.443359"/>
     <use xlink:href="#DejaVuSans-Bold-64" x="1388.720703"/>
     <use xlink:href="#DejaVuSans-Bold-65" x="1460.302734"/>
     <use xlink:href="#DejaVuSans-Bold-20" x="1528.125"/>
     <use xlink:href="#DejaVuSans-Bold-56" x="1562.939453"/>
     <use xlink:href="#DejaVuSans-Bold-50" x="1640.332031"/>
     <use xlink:href="#DejaVuSans-Bold-43" x="1713.623047"/>
     <use xlink:href="#DejaVuSans-Bold-29" x="1787.011719"/>
    </g>
   </g>
   <g id="text_5">
    <!-- EventBridge Rule -->
    <g style="fill: #111827" transform="translate(103.6224 107.888689) scale(0.13 -0.13)">
     <defs>
      <path id="DejaVuSans-Bold-42" d="M 2456 2859 
Q 2741 2859 2887 2984 
Q 3034 3109 3034 3353 
Q 3034 3594 2887 3720 
Q 2741 3847 2456 3847 
L 1791 3847 
L 1791 2859 
L 2456 2859 
z
M 2497 819 
Q 2859 819 3042 972 
Q 3225 1125 3225 1434 
Q 3225 1738 3044 1889 
Q 2863 2041 2497 2041 
L 1791 2041 
L 1791 819 
L 2497 819 
z
M 3616 2497 
Q 4003 2384 4215 2081 
Q 4428 1778 4428 1338 
Q 4428 663 3972 331 
Q 3516 0 2584 0 
L 588 0 
L 588 4666 
L 2394 4666 
Q 3366 4666 3802 4372 
Q 4238 4078 4238 3431 
Q 4238 3091 4078 2852 
Q 3919 2613 3616 2497 
z
" transform="scale(0.015625)"/>
     </defs>
     <use xlink:href="#DejaVuSans-Bold-45"/>
     <use xlink:href="#DejaVuSans-Bold-76" x="68.310547"/>
     <use xlink:href="#DejaVuSans-Bold-65" x="133.496094"/>
     <use xlink:href="#DejaVuSans-Bold-6e" x="201.318359"/>
     <use xlink:href="#DejaVuSans-Bold-74" x="272.509766"/>
     <use xlink:href="#DejaVuSans-Bold-42" x="320.3125"/>
     <use xlink:href="#DejaVuSans-Bold-72" x="396.533203"/>
     <use xlink:href="#DejaVuSans-Bold-69" x="445.849609"/>
     <use xlink:href="#DejaVuSans-Bold-64" x="480.126953"/>
     <use xlink:href="#DejaVuSans-Bold-67" x="551.708984"/>
     <use xlink:href="#DejaVuSans-Bold-65" x="623.291016"/>
     <use xlink:href="#DejaVuSans-Bold-20" x="691.113281"/>
     <use xlink:href="#DejaVuSans-Bold-52" x="725.927734"/>
     <use xlink:href="#DejaVuSans-Bold-75" x="802.929688"/>
     <use xlink:href="#DejaVuSans-Bold-6c" x="874.121094"/>
     <use xlink:href="#DejaVuSans-Bold-65" x="908.398438"/>
    </g>
   </g>
   <g id="text_6">
    <!-- Schedule: rate(1 day) -->
    <g style="fill: #111827" transform="translate(103.6224 130.319081) scale(0.11 -0.11)">
     <defs>
      <path id="DejaVuSans-64" d="M 2906 2969 
L 2906 4863 
L 3481 4863 
L 3481 0 
L 2906 0 
L 2906 525 
Q 2725 213 2448 61 
Q 2172 -91 1784 -91 
Q 1150 -91 751 415 
Q 353 922 353 1747 
Q 353 2572 751 3078 
Q 1150 3584 1784 3584 
Q 2172 3584 2448 3432 
Q 2725 3281 2906 2969 
z
M 947 1747 
Q 947 1113 1208 752 
Q 1469 391 1925 391 
Q 2381 391 2643 752 
Q 2906 1113 2906 1747 
Q 2906 2381 2643 2742 
Q 2381 3103 1925 3103 
Q 1469 3103 1208 2742 
Q 947 2381 947 1747 
z
" transform="scale(0.015625)"/>
      <path id="DejaVuSans-3a" d="M 750 794 
L 1409 794 
L 1409 0 
L 750 0 
L 750 794 
z
M 750 3309 
L 1409 3309 
L 1409 2516 
L 750 2516 
L 750 3309 
z
" transform="scale(0.015625)"/>
      <path id="DejaVuSans-31" d="M 794 531 
L 1825 531 
L 1825 4091 
L 703 3866 
L 703 4441 
L 1819 4666 
L 2450 4666 
L 2450 531 
L 3481 531 
L 3481 0 
L 794 0 
L 794 531 
z
" transform="scale(0.015625)"/>
      <path id="DejaVuSans-79" d="M 2059 -325 
Q 1816 -950 1584 -1140 
Q 1353 -1331 966 -1331 
L 506 -1331 
L 506 -850 
L 844 -850 
Q 1081 -850 1212 -737 
Q 1344 -625 1503 -206 
L 1606 56 
L 191 3500 
L 800 3500 
L 1894 763 
L 2988 3500 
L 3597 3500 
L 2059 -325 
z
" transform="scale(0.015625)"/>
     </defs>
     <use xlink:href="#DejaVuSans-53"/>
     <use xlink:href="#DejaVuSans-63" x="63.476562"/>
     <use xlink:href="#DejaVuSans-68" x="118.457031"/>
     <use xlink:href="#DejaVuSans-65" x="181.835938"/>
     <use xlink:href="#DejaVuSans-64" x="243.359375"/>
     <use xlink:href="#DejaVuSans-75" x="306.835938"/>
     <use xlink:href="#DejaVuSans-6c" x="370.214844"/>
     <use xlink:href="#DejaVuSans-65" x="397.998047"/>
     <use xlink:href="#DejaVuSans-3a" x="459.521484"/>
     <use xlink:href="#DejaVuSans-20" x="493.212891"/>
     <use xlink:href="#DejaVuSans-72" x="525"/>
     <use xlink:href="#DejaVuSans-61" x="566.113281"/>
     <use xlink:href="#DejaVuSans-74" x="627.392578"/>
     <use xlink:href="#DejaVuSans-65" x="666.601562"/>
     <use xlink:href="#DejaVuSans-28" x="728.125"/>
     <use xlink:href="#DejaVuSans-31" x="767.138672"/>
     <use xlink:href="#DejaVuSans-20" x="830.761719"/>
     <use xlink:href="#DejaVuSans-64" x="862.548828"/>
     <use xlink:href="#DejaVuSans-61" x="926.025391"/>
     <use xlink:href="#DejaVuSans-79" x="987.304688"/>
     <use xlink:href="#DejaVuSans-29" x="1046.484375"/>
    </g>
    <!-- Invokes Lambda -->
    <g style="fill: #111827" transform="translate(103.6224 142.636675) scale(0.11 -0.11)">
     <defs>
      <path id="DejaVuSans-49" d="M 628 4666 
L 1259 4666 
L 1259 0 
L 628 0 
L 628 4666 
z
" transform="scale(0.015625)"/>
      <path id="DejaVuSans-6b" d="M 581 4863 
L 1159 4863 
L 1159 1991 
L 2875 3500 
L 3609 3500 
L 1753 1863 
L 3688 0 
L 2938 0 
L 1159 1709 
L 1159 0 
L 581 0 
L 581 4863 
z
" transform="scale(0.015625)"/>
      <path id="DejaVuSans-73" d="M 2834 3397 
L 2834 2853 
Q 2591 2978 2328 3040 
Q 2066 3103 1784 3103 
Q 1356 3103 1142 2972 
Q 928 2841 928 2578 
Q 928 2378 1081 2264 
Q 1234 2150 1697 2047 
L 1894 2003 
Q 2506 1872 2764 1633 
Q 3022 1394 3022 966 
Q 3022 478 2636 193 
Q 2250 -91 1575 -91 
Q 1294 -91 989 -36 
Q 684 19 347 128 
L 347 722 
Q 666 556 975 473 
Q 1284 391 1588 391 
Q 1994 391 2212 530 
Q 2431 669 2431 922 
Q 2431 1156 2273 1281 
Q 2116 1406 1581 1522 
L 1381 1569 
Q 847 1681 609 1914 
Q 372 2147 372 2553 
Q 372 3047 722 3315 
Q 1072 3584 1716 3584 
Q 2034 3584 2315 3537 
Q 2597 3491 2834 3397 
z
" transform="scale(0.015625)"/>
      <path id="DejaVuSans-4c" d="M 628 4666 
L 1259 4666 
L 1259 531 
L 3531 531 
L 3531 0 
L 628 0 
L 628 4666 
z
" transform="scale(0.015625)"/>
      <path id="DejaVuSans-62" d="M 3116 1747 
Q 3116 2381 2855 2742 
Q 2594 3103 2138 3103 
Q 1681 3103 1420 2742 
Q 1159 2381 1159 1747 
Q 1159 1113 1420 752 
Q 1681 391 2138 391 
Q 2594 391 2855 752 
Q 3116 1113 3116 1747 
z
M 1159 2969 
Q 1341 3281 1617 3432 
Q 1894 3584 2278 3584 
Q 2916 3584 3314 3078 
Q 3713 2572 3713 1747 
Q 3713 922 3314 415 
Q 2916 -91 2278 -91 
Q 1894 -91 1617 61 
Q 1341 213 1159 525 
L 1159 0 
L 581 0 
L 581 4863 
L 1159 4863 
L 1159 2969 
z
" transform="scale(0.015625)"/>
     </defs>
     <use xlink:href="#DejaVuSans-49"/>
     <use xlink:href="#DejaVuSans-6e" x="29.492188"/>
     <use xlink:href="#DejaVuSans-76" x="92.871094"/>
     <use xlink:href="#DejaVuSans-6f" x="152.050781"/>
     <use xlink:href="#DejaVuSans-6b" x="213.232422"/>
     <use xlink:href="#DejaVuSans-65" x="267.517578"/>
     <use xlink:href="#DejaVuSans-73" x="329.041016"/>
     <use xlink:href="#DejaVuSans-20" x="381.140625"/>
     <use xlink:href="#DejaVuSans-4c" x="412.927734"/>
     <use xlink:href="#DejaVuSans-61" x="468.640625"/>
     <use xlink:href="#DejaVuSans-6d" x="529.919922"/>
     <use xlink:href="#DejaVuSans-62" x="627.332031"/>
     <use xlink:href="#DejaVuSans-64" x="690.808594"/>
     <use xlink:href="#DejaVuSans-61" x="754.285156"/>
    </g>
   </g>
   <g id="text_7">
    <!-- CloudWatch -->
    <g style="fill: #111827" transform="translate(358.0704 107.888689) scale(0.13 -0.13)">
     <use xlink:href="#DejaVuSans-Bold-43"/>
     <use xlink:href="#DejaVuSans-Bold-6c" x="73.388672"/>
     <use xlink:href="#DejaVuSans-Bold-6f" x="107.666016"/>
     <use xlink:href="#DejaVuSans-Bold-75" x="176.367188"/>
     <use xlink:href="#DejaVuSans-Bold-64" x="247.558594"/>
     <use xlink:href="#DejaVuSans-Bold-57" x="319.140625"/>
     <use xlink:href="#DejaVuSans-Bold-61" x="425.818359"/>
     <use xlink:href="#DejaVuSans-Bold-74" x="493.298828"/>
     <use xlink:href="#DejaVuSans-Bold-63" x="541.101562"/>
     <use xlink:href="#DejaVuSans-Bold-68" x="600.378906"/>
    </g>
   </g>
   <g id="text_8">
    <!-- Logs: /aws/lambda/&lt;function&gt; -->
    <g style="fill: #111827" transform="translate(358.0704 130.319081) scale(0.11 -0.11)">
     <defs>
      <path id="DejaVuSans-67" d="M 2906 1791 
Q 2906 2416 2648 2759 
Q 2391 3103 1925 3103 
Q 1463 3103 1205 2759 
Q 947 2416 947 1791 
Q 947 1169 1205 825 
Q 1463 481 1925 481 
Q 2391 481 2648 825 
Q 2906 1169 2906 1791 
z
M 3481 434 
Q 3481 -459 3084 -895 
Q 2688 -1331 1869 -1331 
Q 1566 -1331 1297 -1286 
Q 1028 -1241 775 -1147 
L 775 -588 
Q 1028 -725 1275 -790 
Q 1522 -856 1778 -856 
Q 2344 -856 2625 -561 
Q 2906 -266 2906 331 
L 2906 616 
Q 2728 306 2450 153 
Q 2172 0 1784 0 
Q 1141 0 747 490 
Q 353 981 353 1791 
Q 353 2603 747 3093 
Q 1141 3584 1784 3584 
Q 2172 3584 2450 3431 
Q 2728 3278 2906 2969 
L 2906 3500 
L 3481 3500 
L 3481 434 
z
" transform="scale(0.015625)"/>
      <path id="DejaVuSans-2f" d="M 1625 4666 
L 2156 4666 
L 531 -594 
L 0 -594 
L 1625 4666 
z
" transform="scale(0.015625)"/>
      <path id="DejaVuSans-3c" d="M 4684 3150 
L 1459 2003 
L 4684 863 
L 4684 294 
L 678 1747 
L 678 2266 
L 4684 3719 
L 4684 3150 
z
" transform="scale(0.015625)"/>
      <path id="DejaVuSans-3e" d="M 678 3150 
L 678 3719 
L 4684 2266 
L 4684 1747 
L 678 294 
L 678 863 
L 3897 2003 
L 678 3150 
z
" transform="scale(0.015625)"/>
     </defs>
     <use xlink:href="#DejaVuSans-4c"/>
     <use xlink:href="#DejaVuSans-6f" x="53.962891"/>
     <use xlink:href="#DejaVuSans-67" x="115.144531"/>
     <use xlink:href="#DejaVuSans-73" x="178.621094"/>
     <use xlink:href="#DejaVuSans-3a" x="230.720703"/>
     <use xlink:href="#DejaVuSans-20" x="264.412109"/>
     <use xlink:href="#DejaVuSans-2f" x="296.199219"/>
     <use xlink:href="#DejaVuSans-61" x="329.890625"/>
     <use xlink:href="#DejaVuSans-77" x="391.169922"/>
     <use xlink:href="#DejaVuSans-73" x="472.957031"/>
     <use xlink:href="#DejaVuSans-2f" x="525.056641"/>
     <use xlink:href="#DejaVuSans-6c" x="558.748047"/>
     <use xlink:href="#DejaVuSans-61" x="586.53125"/>
     <use xlink:href="#DejaVuSans-6d" x="647.810547"/>
     <use xlink:href="#DejaVuSans-62" x="745.222656"/>
     <use xlink:href="#DejaVuSans-64" x="808.699219"/>
     <use xlink:href="#DejaVuSans-61" x="872.175781"/>
     <use xlink:href="#DejaVuSans-2f" x="933.455078"/>
     <use xlink:href="#DejaVuSans-3c" x="967.146484"/>
     <use xlink:href="#DejaVuSans-66" x="1050.935547"/>
     <use xlink:href="#DejaVuSans-75" x="1086.140625"/>
     <use xlink:href="#DejaVuSans-6e" x="1149.519531"/>
     <use xlink:href="#DejaVuSans-63" x="1212.898438"/>
     <use xlink:href="#DejaVuSans-74" x="1267.878906"/>
     <use xlink:href="#DejaVuSans-69" x="1307.087891"/>
     <use xlink:href="#DejaVuSans-6f" x="1334.871094"/>
     <use xlink:href="#DejaVuSans-6e" x="1396.052734"/>
     <use xlink:href="#DejaVuSans-3e" x="1459.431641"/>
    </g>
    <!-- Metrics: Invocations, Errors -->
    <g style="fill: #111827" transform="translate(358.0704 142.636675) scale(0.11 -0.11)">
     <defs>
      <path id="DejaVuSans-4d" d="M 628 4666 
L 1569 4666 
L 2759 1491 
L 3956 4666 
L 4897 4666 
L 4897 0 
L 4281 0 
L 4281 4097 
L 3078 897 
L 2444 897 
L 1241 4097 
L 1241 0 
L 628 0 
L 628 4666 
z
" transform="scale(0.015625)"/>
      <path id="DejaVuSans-45" d="M 628 4666 
L 3578 4666 
L 3578 4134 
L 1259 4134 
L 1259 2753 
L 3481 2753 
L 3481 2222 
L 1259 2222 
L 1259 531 
L 3634 531 
L 3634 0 
L 628 0 
L 628 4666 
z
" transform="scale(0.015625)"/>
     </defs>
     <use xlink:href="#DejaVuSans-4d"/>
     <use xlink:href="#DejaVuSans-65" x="86.279297"/>
     <use xlink:href="#DejaVuSans-74" x="147.802734"/>
     <use xlink:href="#DejaVuSans-72" x="187.011719"/>
     <use xlink:href="#DejaVuSans-69" x="228.125"/>
     <use xlink:href="#DejaVuSans-63" x="255.908203"/>
     <use xlink:href="#DejaVuSans-73" x="310.888672"/>
     <use xlink:href="#DejaVuSans-3a" x="362.988281"/>
     <use xlink:href="#DejaVuSans-20" x="396.679688"/>
     <use xlink:href="#DejaVuSans-49" x="428.466797"/>
     <use xlink:href="#DejaVuSans-6e" x="457.958984"/>
     <use xlink:href="#DejaVuSans-76" x="521.337891"/>
     <use xlink:href="#DejaVuSans-6f" x="580.517578"/>
     <use xlink:href="#DejaVuSans-63" x="641.699219"/>
     <use xlink:href="#DejaVuSans-61" x="696.679688"/>
     <use xlink:href="#DejaVuSans-74" x="757.958984"/>
     <use xlink:href="#DejaVuSans-69" x="797.167969"/>
     <use xlink:href="#DejaVuSans-6f" x="824.951172"/>
     <use xlink:href="#DejaVuSans-6e" x="886.132812"/>
     <use xlink:href="#DejaVuSans-73" x="949.511719"/>
     <use xlink:href="#DejaVuSans-2c" x="1001.611328"/>
     <use xlink:href="#DejaVuSans-20" x="1033.398438"/>
     <use xlink:href="#DejaVuSans-45" x="1065.185547"/>
     <use xlink:href="#DejaVuSans-72" x="1128.369141"/>
     <use xlink:href="#DejaVuSans-72" x="1167.732422"/>
     <use xlink:href="#DejaVuSans-6f" x="1206.595703"/>
     <use xlink:href="#DejaVuSans-72" x="1267.777344"/>
     <use xlink:href="#DejaVuSans-73" x="1308.890625"/>
    </g>
   </g>
   <g id="text_9">
    <!-- EC2 API (Snapshots) -->
    <g style="fill: #111827" transform="translate(612.5184 107.888689) scale(0.13 -0.13)">
     <defs>
      <path id="DejaVuSans-Bold-49" d="M 588 4666 
L 1791 4666 
L 1791 0 
L 588 0 
L 588 4666 
z
" transform="scale(0.015625)"/>
     </defs>
     <use xlink:href="#DejaVuSans-Bold-45"/>
     <use xlink:href="#DejaVuSans-Bold-43" x="68.310547"/>
     <use xlink:href="#DejaVuSans-Bold-32" x="141.699219"/>
     <use xlink:href="#DejaVuSans-Bold-20" x="211.279297"/>
     <use xlink:href="#DejaVuSans-Bold-41" x="246.09375"/>
     <use xlink:href="#DejaVuSans-Bold-50" x="323.486328"/>
     <use xlink:href="#DejaVuSans-Bold-49" x="396.777344"/>
     <use xlink:href="#DejaVuSans-Bold-20" x="433.984375"/>
     <use xlink:href="#DejaVuSans-Bold-28" x="468.798828"/>
     <use xlink:href="#DejaVuSans-Bold-53" x="514.501953"/>
     <use xlink:href="#DejaVuSans-Bold-6e" x="586.523438"/>
     <use xlink:href="#DejaVuSans-Bold-61" x="657.714844"/>
     <use xlink:href="#DejaVuSans-Bold-70" x="725.195312"/>
     <use xlink:href="#DejaVuSans-Bold-73" x="796.777344"/>
     <use xlink:href="#DejaVuSans-Bold-68" x="856.298828"/>
     <use xlink:href="#DejaVuSans-Bold-6f" x="927.490234"/>
     <use xlink:href="#DejaVuSans-Bold-74" x="996.191406"/>
     <use xlink:href="#DejaVuSans-Bold-73" x="1043.994141"/>
     <use xlink:href="#DejaVuSans-Bold-29" x="1103.515625"/>
    </g>
   </g>
   <g id="text_10">
    <!-- DescribeSnapshots (Owner=self) -->
    <g style="fill: #111827" transform="translate(612.5184 130.319081) scale(0.11 -0.11)">
     <defs>
      <path id="DejaVuSans-44" d="M 1259 4147 
L 1259 519 
L 2022 519 
Q 2988 519 3436 956 
Q 3884 1394 3884 2338 
Q 3884 3275 3436 3711 
Q 2988 4147 2022 4147 
L 1259 4147 
z
M 628 4666 
L 1925 4666 
Q 3281 4666 3915 4102 
Q 4550 3538 4550 2338 
Q 4550 1131 3912 565 
Q 3275 0 1925 0 
L 628 0 
L 628 4666 
z
" transform="scale(0.015625)"/>
      <path id="DejaVuSans-4f" d="M 2522 4238 
Q 1834 4238 1429 3725 
Q 1025 3213 1025 2328 
Q 1025 1447 1429 934 
Q 1834 422 2522 422 
Q 3209 422 3611 934 
Q 4013 1447 4013 2328 
Q 4013 3213 3611 3725 
Q 3209 4238 2522 4238 
z
M 2522 4750 
Q 3503 4750 4090 4092 
Q 4678 3434 4678 2328 
Q 4678 1225 4090 567 
Q 3503 -91 2522 -91 
Q 1538 -91 948 565 
Q 359 1222 359 2328 
Q 359 3434 948 4092 
Q 1538 4750 2522 4750 
z
" transform="scale(0.015625)"/>
      <path id="DejaVuSans-3d" d="M 678 2906 
L 4684 2906 
L 4684 2381 
L 678 2381 
L 678 2906 
z
M 678 1631 
L 4684 1631 
L 4684 1100 
L 678 1100 
L 678 1631 
z
" transform="scale(0.015625)"/>
     </defs>
     <use xlink:href="#DejaVuSans-44"/>
     <use xlink:href="#DejaVuSans-65" x="77.001953"/>
     <use xlink:href="#DejaVuSans-73" x="138.525391"/>
     <use xlink:href="#DejaVuSans-63" x="190.625"/>
     <use xlink:href="#DejaVuSans-72" x="245.605469"/>
     <use xlink:href="#DejaVuSans-69" x="286.71875"/>
     <use xlink:href="#DejaVuSans-62" x="314.501953"/>
     <use xlink:href="#DejaVuSans-65" x="377.978516"/>
     <use xlink:href="#DejaVuSans-53" x="439.501953"/>
     <use xlink:href="#DejaVuSans-6e" x="502.978516"/>
     <use xlink:href="#DejaVuSans-61" x="566.357422"/>
     <use xlink:href="#DejaVuSans-70" x="627.636719"/>
     <use xlink:href="#DejaVuSans-73" x="691.113281"/>
     <use xlink:href="#DejaVuSans-68" x="743.212891"/>
     <use xlink:href="#DejaVuSans-6f" x="806.591797"/>
     <use xlink:href="#DejaVuSans-74" x="867.773438"/>
     <use xlink:href="#DejaVuSans-73" x="906.982422"/>
     <use xlink:href="#DejaVuSans-20" x="959.082031"/>
     <use xlink:href="#DejaVuSans-28" x="990.869141"/>
     <use xlink:href="#DejaVuSans-4f" x="1029.882812"/>
     <use xlink:href="#DejaVuSans-77" x="1108.59375"/>
     <use xlink:href="#DejaVuSans-6e" x="1190.380859"/>
     <use xlink:href="#DejaVuSans-65" x="1253.759766"/>
     <use xlink:href="#DejaVuSans-72" x="1315.283203"/>
     <use xlink:href="#DejaVuSans-3d" x="1356.396484"/>
     <use xlink:href="#DejaVuSans-73" x="1440.185547"/>
     <use xlink:href="#DejaVuSans-65" x="1492.285156"/>
     <use xlink:href="#DejaVuSans-6c" x="1553.808594"/>
     <use xlink:href="#DejaVuSans-66" x="1581.591797"/>
     <use xlink:href="#DejaVuSans-29" x="1616.796875"/>
    </g>
    <!-- DeleteSnapshot -->
    <g style="fill: #111827" transform="translate(612.5184 142.636675) scale(0.11 -0.11)">
     <use xlink:href="#DejaVuSans-44"/>
     <use xlink:href="#DejaVuSans-65" x="77.001953"/>
     <use xlink:href="#DejaVuSans-6c" x="138.525391"/>
     <use xlink:href="#DejaVuSans-65" x="166.308594"/>
     <use xlink:href="#DejaVuSans-74" x="227.832031"/>
     <use xlink:href="#DejaVuSans-65" x="267.041016"/>
     <use xlink:href="#DejaVuSans-53" x="328.564453"/>
     <use xlink:href="#DejaVuSans-6e" x="392.041016"/>
     <use xlink:href="#DejaVuSans-61" x="455.419922"/>
     <use xlink:href="#DejaVuSans-70" x="516.699219"/>
     <use xlink:href="#DejaVuSans-73" x="580.175781"/>
     <use xlink:href="#DejaVuSans-68" x="632.275391"/>
     <use xlink:href="#DejaVuSans-6f" x="695.654297"/>
     <use xlink:href="#DejaVuSans-74" x="756.835938"/>
    </g>
   </g>
   <g id="text_11">
    <!-- VPC 10.10.0.0/16 -->
    <g style="fill: #111827" transform="translate(83.088 174.038822) scale(0.135 -0.135)">
     <defs>
      <path id="DejaVuSans-Bold-31" d="M 750 831 
L 1813 831 
L 1813 3847 
L 722 3622 
L 722 4441 
L 1806 4666 
L 2950 4666 
L 2950 831 
L 4013 831 
L 4013 0 
L 750 0 
L 750 831 
z
" transform="scale(0.015625)"/>
      <path id="DejaVuSans-Bold-30" d="M 2944 2338 
Q 2944 3213 2780 3570 
Q 2616 3928 2228 3928 
Q 1841 3928 1675 3570 
Q 1509 3213 1509 2338 
Q 1509 1453 1675 1090 
Q 1841 728 2228 728 
Q 2613 728 2778 1090 
Q 2944 1453 2944 2338 
z
M 4147 2328 
Q 4147 1169 3647 539 
Q 3147 -91 2228 -91 
Q 1306 -91 806 539 
Q 306 1169 306 2328 
Q 306 3491 806 4120 
Q 1306 4750 2228 4750 
Q 3147 4750 3647 4120 
Q 4147 3491 4147 2328 
z
" transform="scale(0.015625)"/>
      <path id="DejaVuSans-Bold-2e" d="M 653 1209 
L 1778 1209 
L 1778 0 
L 653 0 
L 653 1209 
z
" transform="scale(0.015625)"/>
      <path id="DejaVuSans-Bold-36" d="M 2316 2303 
Q 2000 2303 1842 2098 
Q 1684 1894 1684 1484 
Q 1684 1075 1842 870 
Q 2000 666 2316 666 
Q 2634 666 2792 870 
Q 2950 1075 2950 1484 
Q 2950 1894 2792 2098 
Q 2634 2303 2316 2303 
z
M 3803 4544 
L 3803 3681 
Q 3506 3822 3243 3889 
Q 2981 3956 2731 3956 
Q 2194 3956 1894 3657 
Q 1594 3359 1544 2772 
Q 1750 2925 1990 3001 
Q 2231 3078 2516 3078 
Q 3231 3078 3670 2659 
Q 4109 2241 4109 1563 
Q 4109 813 3618 361 
Q 3128 -91 2303 -91 
Q 1394 -91 895 523 
Q 397 1138 397 2266 
Q 397 3422 980 4083 
Q 1563 4744 2578 4744 
Q 2900 4744 3203 4694 
Q 3506 4644 3803 4544 
z
" transform="scale(0.015625)"/>
     </defs>
     <use xlink:href="#DejaVuSans-Bold-56"/>
     <use xlink:href="#DejaVuSans-Bold-50" x="77.392578"/>
     <use xlink:href="#DejaVuSans-Bold-43" x="150.683594"/>
     <use xlink:href="#DejaVuSans-Bold-20" x="224.072266"/>
     <use xlink:href="#DejaVuSans-Bold-31" x="258.886719"/>
     <use xlink:href="#DejaVuSans-Bold-30" x="328.466797"/>
     <use xlink:href="#DejaVuSans-Bold-2e" x="398.046875"/>
     <use xlink:href="#DejaVuSans-Bold-31" x="436.035156"/>
     <use xlink:href="#DejaVuSans-Bold-30" x="505.615234"/>
     <use xlink:href="#DejaVuSans-Bold-2e" x="575.195312"/>
     <use xlink:href="#DejaVuSans-Bold-30" x="613.183594"/>
     <use xlink:href="#DejaVuSans-Bold-2e" x="682.763672"/>
     <use xlink:href="#DejaVuSans-Bold-30" x="720.751953"/>
     <use xlink:href="#DejaVuSans-Bold-2f" x="790.332031"/>
     <use xlink:href="#DejaVuSans-Bold-31" x="826.855469"/>
     <use xlink:href="#DejaVuSans-Bold-36" x="896.435547"/>
    </g>
   </g>
   <g id="text_12">
    <!-- Public Subnet 10.10.1.0/24 -->
    <g style="fill: #111827" transform="translate(100.944 193.997222) scale(0.135 -0.135)">
     <defs>
      <path id="DejaVuSans-Bold-34" d="M 2356 3675 
L 1038 1722 
L 2356 1722 
L 2356 3675 
z
M 2156 4666 
L 3494 4666 
L 3494 1722 
L 4159 1722 
L 4159 850 
L 3494 850 
L 3494 0 
L 2356 0 
L 2356 850 
L 288 850 
L 288 1881 
L 2156 4666 
z
" transform="scale(0.015625)"/>
     </defs>
     <use xlink:href="#DejaVuSans-Bold-50"/>
     <use xlink:href="#DejaVuSans-Bold-75" x="73.291016"/>
     <use xlink:href="#DejaVuSans-Bold-62" x="144.482422"/>
     <use xlink:href="#DejaVuSans-Bold-6c" x="216.064453"/>
     <use xlink:href="#DejaVuSans-Bold-69" x="250.341797"/>
     <use xlink:href="#DejaVuSans-Bold-63" x="284.619141"/>
     <use xlink:href="#DejaVuSans-Bold-20" x="343.896484"/>
     <use xlink:href="#DejaVuSans-Bold-53" x="378.710938"/>
     <use xlink:href="#DejaVuSans-Bold-75" x="450.732422"/>
     <use xlink:href="#DejaVuSans-Bold-62" x="521.923828"/>
     <use xlink:href="#DejaVuSans-Bold-6e" x="593.505859"/>
     <use xlink:href="#DejaVuSans-Bold-65" x="664.697266"/>
     <use xlink:href="#DejaVuSans-Bold-74" x="732.519531"/>
     <use xlink:href="#DejaVuSans-Bold-20" x="780.322266"/>
     <use xlink:href="#DejaVuSans-Bold-31" x="815.136719"/>
     <use xlink:href="#DejaVuSans-Bold-30" x="884.716797"/>
     <use xlink:href="#DejaVuSans-Bold-2e" x="954.296875"/>
     <use xlink:href="#DejaVuSans-Bold-31" x="992.285156"/>
     <use xlink:href="#DejaVuSans-Bold-30" x="1061.865234"/>
     <use xlink:href="#DejaVuSans-Bold-2e" x="1131.445312"/>
     <use xlink:href="#DejaVuSans-Bold-31" x="1169.433594"/>
     <use xlink:href="#DejaVuSans-Bold-2e" x="1239.013672"/>
     <use xlink:href="#DejaVuSans-Bold-30" x="1277.001953"/>
     <use xlink:href="#DejaVuSans-Bold-2f" x="1346.582031"/>
     <use xlink:href="#DejaVuSans-Bold-32" x="1383.105469"/>
     <use xlink:href="#DejaVuSans-Bold-34" x="1452.685547"/>
    </g>
   </g>
   <g id="text_13">
    <!-- Private Subnet 10.10.2.0/24 -->
    <g style="fill: #111827" transform="translate(511.632 193.997222) scale(0.135 -0.135)">
     <use xlink:href="#DejaVuSans-Bold-50"/>
     <use xlink:href="#DejaVuSans-Bold-72" x="73.291016"/>
     <use xlink:href="#DejaVuSans-Bold-69" x="122.607422"/>
     <use xlink:href="#DejaVuSans-Bold-76" x="156.884766"/>
     <use xlink:href="#DejaVuSans-Bold-61" x="222.070312"/>
     <use xlink:href="#DejaVuSans-Bold-74" x="289.550781"/>
     <use xlink:href="#DejaVuSans-Bold-65" x="337.353516"/>
     <use xlink:href="#DejaVuSans-Bold-20" x="405.175781"/>
     <use xlink:href="#DejaVuSans-Bold-53" x="439.990234"/>
     <use xlink:href="#DejaVuSans-Bold-75" x="512.011719"/>
     <use xlink:href="#DejaVuSans-Bold-62" x="583.203125"/>
     <use xlink:href="#DejaVuSans-Bold-6e" x="654.785156"/>
     <use xlink:href="#DejaVuSans-Bold-65" x="725.976562"/>
     <use xlink:href="#DejaVuSans-Bold-74" x="793.798828"/>
     <use xlink:href="#DejaVuSans-Bold-20" x="841.601562"/>
     <use xlink:href="#DejaVuSans-Bold-31" x="876.416016"/>
     <use xlink:href="#DejaVuSans-Bold-30" x="945.996094"/>
     <use xlink:href="#DejaVuSans-Bold-2e" x="1015.576172"/>
     <use xlink:href="#DejaVuSans-Bold-31" x="1053.564453"/>
     <use xlink:href="#DejaVuSans-Bold-30" x="1123.144531"/>
     <use xlink:href="#DejaVuSans-Bold-2e" x="1192.724609"/>
     <use xlink:href="#DejaVuSans-Bold-32" x="1230.712891"/>
     <use xlink:href="#DejaVuSans-Bold-2e" x="1300.292969"/>
     <use xlink:href="#DejaVuSans-Bold-30" x="1338.28125"/>
     <use xlink:href="#DejaVuSans-Bold-2f" x="1407.861328"/>
     <use xlink:href="#DejaVuSans-Bold-32" x="1444.384766"/>
     <use xlink:href="#DejaVuSans-Bold-34" x="1513.964844"/>
    </g>
   </g>
   <g id="text_14">
    <!-- Internet Gateway -->
    <g style="fill: #111827" transform="translate(121.4784 252.109511) scale(0.125 -0.125)">
     <defs>
      <path id="DejaVuSans-Bold-47" d="M 4781 347 
Q 4331 128 3847 18 
Q 3363 -91 2847 -91 
Q 1681 -91 1000 561 
Q 319 1213 319 2328 
Q 319 3456 1012 4103 
Q 1706 4750 2913 4750 
Q 3378 4750 3804 4662 
Q 4231 4575 4609 4403 
L 4609 3438 
Q 4219 3659 3833 3768 
Q 3447 3878 3059 3878 
Q 2341 3878 1952 3476 
Q 1563 3075 1563 2328 
Q 1563 1588 1938 1184 
Q 2313 781 3003 781 
Q 3191 781 3352 804 
Q 3513 828 3641 878 
L 3641 1784 
L 2906 1784 
L 2906 2591 
L 4781 2591 
L 4781 347 
z
" transform="scale(0.015625)"/>
      <path id="DejaVuSans-Bold-77" d="M 225 3500 
L 1313 3500 
L 1900 1088 
L 2491 3500 
L 3425 3500 
L 4013 1113 
L 4603 3500 
L 5691 3500 
L 4769 0 
L 3547 0 
L 2956 2406 
L 2369 0 
L 1147 0 
L 225 3500 
z
" transform="scale(0.015625)"/>
      <path id="DejaVuSans-Bold-79" d="M 78 3500 
L 1197 3500 
L 2138 1125 
L 2938 3500 
L 4056 3500 
L 2584 -331 
Q 2363 -916 2067 -1148 
Q 1772 -1381 1288 -1381 
L 641 -1381 
L 641 -647 
L 991 -647 
Q 1275 -647 1404 -556 
Q 1534 -466 1606 -231 
L 1638 -134 
L 78 3500 
z
" transform="scale(0.015625)"/>
     </defs>
     <use xlink:href="#DejaVuSans-Bold-49"/>
     <use xlink:href="#DejaVuSans-Bold-6e" x="37.207031"/>
     <use xlink:href="#DejaVuSans-Bold-74" x="108.398438"/>
     <use xlink:href="#DejaVuSans-Bold-65" x="156.201172"/>
     <use xlink:href="#DejaVuSans-Bold-72" x="224.023438"/>
     <use xlink:href="#DejaVuSans-Bold-6e" x="273.339844"/>
     <use xlink:href="#DejaVuSans-Bold-65" x="344.53125"/>
     <use xlink:href="#DejaVuSans-Bold-74" x="412.353516"/>
     <use xlink:href="#DejaVuSans-Bold-20" x="460.15625"/>
     <use xlink:href="#DejaVuSans-Bold-47" x="494.970703"/>
     <use xlink:href="#DejaVuSans-Bold-61" x="577.050781"/>
     <use xlink:href="#DejaVuSans-Bold-74" x="644.53125"/>
     <use xlink:href="#DejaVuSans-Bold-65" x="692.333984"/>
     <use xlink:href="#DejaVuSans-Bold-77" x="760.15625"/>
     <use xlink:href="#DejaVuSans-Bold-61" x="852.539062"/>
     <use xlink:href="#DejaVuSans-Bold-79" x="916.894531"/>
    </g>
   </g>
   <g id="text_15">
    <!-- Public route: -->
    <g style="fill: #111827" transform="translate(121.4784 274.637559) scale(0.105 -0.105)">
     <defs>
      <path id="DejaVuSans-50" d="M 1259 4147 
L 1259 2394 
L 2053 2394 
Q 2494 2394 2734 2622 
Q 2975 2850 2975 3272 
Q 2975 3691 2734 3919 
Q 2494 4147 2053 4147 
L 1259 4147 
z
M 628 4666 
L 2053 4666 
Q 2838 4666 3239 4311 
Q 3641 3956 3641 3272 
Q 3641 2581 3239 2228 
Q 2838 1875 2053 1875 
L 1259 1875 
L 1259 0 
L 628 0 
L 628 4666 
z
" transform="scale(0.015625)"/>
     </defs>
     <use xlink:href="#DejaVuSans-50"/>
     <use xlink:href="#DejaVuSans-75" x="58.552734"/>
     <use xlink:href="#DejaVuSans-62" x="121.931641"/>
     <use xlink:href="#DejaVuSans-6c" x="185.408203"/>
     <use xlink:href="#DejaVuSans-69" x="213.191406"/>
     <use xlink:href="#DejaVuSans-63" x="240.974609"/>
     <use xlink:href="#DejaVuSans-20" x="295.955078"/>
     <use xlink:href="#DejaVuSans-72" x="327.742188"/>
     <use xlink:href="#DejaVuSans-6f" x="366.605469"/>
     <use xlink:href="#DejaVuSans-75" x="427.787109"/>
     <use xlink:href="#DejaVuSans-74" x="491.166016"/>
     <use xlink:href="#DejaVuSans-65" x="530.375"/>
     <use xlink:href="#DejaVuSans-3a" x="591.898438"/>
    </g>
    <!-- 0.0.0.0/0 → IGW -->
    <g style="fill: #111827" transform="translate(121.4784 286.395263) scale(0.105 -0.105)">
     <defs>
      <path id="DejaVuSans-30" d="M 2034 4250 
Q 1547 4250 1301 3770 
Q 1056 3291 1056 2328 
Q 1056 1369 1301 889 
Q 1547 409 2034 409 
Q 2525 409 2770 889 
Q 3016 1369 3016 2328 
Q 3016 3291 2770 3770 
Q 2525 4250 2034 4250 
z
M 2034 4750 
Q 2819 4750 3233 4129 
Q 3647 3509 3647 2328 
Q 3647 1150 3233 529 
Q 2819 -91 2034 -91 
Q 1250 -91 836 529 
Q 422 1150 422 2328 
Q 422 3509 836 4129 
Q 1250 4750 2034 4750 
z
" transform="scale(0.015625)"/>
      <path id="DejaVuSans-2e" d="M 684 794 
L 1344 794 
L 1344 0 
L 684 0 
L 684 794 
z
" transform="scale(0.015625)"/>
      <path id="DejaVuSans-2192" d="M 5050 2147 
L 5050 1866 
L 3822 638 
L 3447 1013 
L 4175 1741 
L 366 1741 
L 366 2272 
L 4175 2272 
L 3447 3000 
L 3822 3375 
L 5050 2147 
z
" transform="scale(0.015625)"/>
      <path id="DejaVuSans-47" d="M 3809 666 
L 3809 1919 
L 2778 1919 
L 2778 2438 
L 4434 2438 
L 4434 434 
Q 4069 175 3628 42 
Q 3188 -91 2688 -91 
Q 1594 -91 976 548 
Q 359 1188 359 2328 
Q 359 3472 976 4111 
Q 1594 4750 2688 4750 
Q 3144 4750 3555 4637 
Q 3966 4525 4313 4306 
L 4313 3634 
Q 3963 3931 3569 4081 
Q 3175 4231 2741 4231 
Q 1884 4231 1454 3753 
Q 1025 3275 1025 2328 
Q 1025 1384 1454 906 
Q 1884 428 2741 428 
Q 3075 428 3337 486 
Q 3600 544 3809 666 
z
" transform="scale(0.015625)"/>
      <path id="DejaVuSans-57" d="M 213 4666 
L 850 4666 
L 1831 722 
L 2809 4666 
L 3519 4666 
L 4500 722 
L 5478 4666 
L 6119 4666 
L 4947 0 
L 4153 0 
L 3169 4050 
L 2175 0 
L 1381 0 
L 213 4666 
z
" transform="scale(0.015625)"/>
     </defs>
     <use xlink:href="#DejaVuSans-30"/>
     <use xlink:href="#DejaVuSans-2e" x="63.623047"/>
     <use xlink:href="#DejaVuSans-30" x="95.410156"/>
     <use xlink:href="#DejaVuSans-2e" x="159.033203"/>
     <use xlink:href="#DejaVuSans-30" x="190.820312"/>
     <use xlink:href="#DejaVuSans-2e" x="254.443359"/>
     <use xlink:href="#DejaVuSans-30" x="286.230469"/>
     <use xlink:href="#DejaVuSans-2f" x="349.853516"/>
     <use xlink:href="#DejaVuSans-30" x="383.544922"/>
     <use xlink:href="#DejaVuSans-20" x="447.167969"/>
     <use xlink:href="#DejaVuSans-2192" x="478.955078"/>
     <use xlink:href="#DejaVuSans-20" x="562.744141"/>
     <use xlink:href="#DejaVuSans-49" x="594.53125"/>
     <use xlink:href="#DejaVuSans-47" x="624.023438"/>
     <use xlink:href="#DejaVuSans-57" x="701.513672"/>
    </g>
   </g>
   <g id="text_16">
    <!-- NAT Gateway -->
    <g style="fill: #111827" transform="translate(291.1104 252.109511) scale(0.125 -0.125)">
     <defs>
      <path id="DejaVuSans-Bold-4e" d="M 588 4666 
L 1931 4666 
L 3628 1466 
L 3628 4666 
L 4769 4666 
L 4769 0 
L 3425 0 
L 1728 3200 
L 1728 0 
L 588 0 
L 588 4666 
z
" transform="scale(0.015625)"/>
      <path id="DejaVuSans-Bold-54" d="M 31 4666 
L 4331 4666 
L 4331 3756 
L 2784 3756 
L 2784 0 
L 1581 0 
L 1581 3756 
L 31 3756 
L 31 4666 
z
" transform="scale(0.015625)"/>
     </defs>
     <use xlink:href="#DejaVuSans-Bold-4e"/>
     <use xlink:href="#DejaVuSans-Bold-41" x="83.691406"/>
     <use xlink:href="#DejaVuSans-Bold-54" x="153.333984"/>
     <use xlink:href="#DejaVuSans-Bold-20" x="221.546875"/>
     <use xlink:href="#DejaVuSans-Bold-47" x="256.361328"/>
     <use xlink:href="#DejaVuSans-Bold-61" x="338.441406"/>
     <use xlink:href="#DejaVuSans-Bold-74" x="405.921875"/>
     <use xlink:href="#DejaVuSans-Bold-65" x="453.724609"/>
     <use xlink:href="#DejaVuSans-Bold-77" x="521.546875"/>
     <use xlink:href="#DejaVuSans-Bold-61" x="613.929688"/>
     <use xlink:href="#DejaVuSans-Bold-79" x="678.285156"/>
    </g>
   </g>
   <g id="text_17">
    <!-- Private egress to AWS APIs -->
    <g style="fill: #111827" transform="translate(291.1104 274.637559) scale(0.105 -0.105)">
     <defs>
      <path id="DejaVuSans-41" d="M 2188 4044 
L 1331 1722 
L 3047 1722 
L 2188 4044 
z
M 1831 4666 
L 2547 4666 
L 4325 0 
L 3669 0 
L 3244 1197 
L 1141 1197 
L 716 0 
L 50 0 
L 1831 4666 
z
" transform="scale(0.015625)"/>
     </defs>
     <use xlink:href="#DejaVuSans-50"/>
     <use xlink:href="#DejaVuSans-72" x="58.552734"/>
     <use xlink:href="#DejaVuSans-69" x="99.666016"/>
     <use xlink:href="#DejaVuSans-76" x="127.449219"/>
     <use xlink:href="#DejaVuSans-61" x="186.628906"/>
     <use xlink:href="#DejaVuSans-74" x="247.908203"/>
     <use xlink:href="#DejaVuSans-65" x="287.117188"/>
     <use xlink:href="#DejaVuSans-20" x="348.640625"/>
     <use xlink:href="#DejaVuSans-65" x="380.427734"/>
     <use xlink:href="#DejaVuSans-67" x="441.951172"/>
     <use xlink:href="#DejaVuSans-72" x="505.427734"/>
     <use xlink:href="#DejaVuSans-65" x="544.291016"/>
     <use xlink:href="#DejaVuSans-73" x="605.814453"/>
     <use xlink:href="#DejaVuSans-73" x="657.914062"/>
     <use xlink:href="#DejaVuSans-20" x="710.013672"/>
     <use xlink:href="#DejaVuSans-74" x="741.800781"/>
     <use xlink:href="#DejaVuSans-6f" x="781.009766"/>
     <use xlink:href="#DejaVuSans-20" x="842.191406"/>
     <use xlink:href="#DejaVuSans-41" x="873.978516"/>
     <use xlink:href="#DejaVuSans-57" x="936.886719"/>
     <use xlink:href="#DejaVuSans-53" x="1035.763672"/>
     <use xlink:href="#DejaVuSans-20" x="1099.240234"/>
     <use xlink:href="#DejaVuSans-41" x="1131.027344"/>
     <use xlink:href="#DejaVuSans-50" x="1199.435547"/>
     <use xlink:href="#DejaVuSans-49" x="1259.738281"/>
     <use xlink:href="#DejaVuSans-73" x="1289.230469"/>
    </g>
   </g>
   <g id="text_18">
    <!-- Lambda (snapshot_cleanup) -->
    <g style="fill: #111827" transform="translate(532.1664 232.248767) scale(0.125 -0.125)">
     <defs>
      <path id="DejaVuSans-Bold-5f" d="M 3200 -916 
L 3200 -1509 
L 0 -1509 
L 0 -916 
L 3200 -916 
z
" transform="scale(0.015625)"/>
     </defs>
     <use xlink:href="#DejaVuSans-Bold-4c"/>
     <use xlink:href="#DejaVuSans-Bold-61" x="63.720703"/>
     <use xlink:href="#DejaVuSans-Bold-6d" x="131.201172"/>
     <use xlink:href="#DejaVuSans-Bold-62" x="235.400391"/>
     <use xlink:href="#DejaVuSans-Bold-64" x="306.982422"/>
     <use xlink:href="#DejaVuSans-Bold-61" x="378.564453"/>
     <use xlink:href="#DejaVuSans-Bold-20" x="446.044922"/>
     <use xlink:href="#DejaVuSans-Bold-28" x="480.859375"/>
     <use xlink:href="#DejaVuSans-Bold-73" x="526.5625"/>
     <use xlink:href="#DejaVuSans-Bold-6e" x="586.083984"/>
     <use xlink:href="#DejaVuSans-Bold-61" x="657.275391"/>
     <use xlink:href="#DejaVuSans-Bold-70" x="724.755859"/>
     <use xlink:href="#DejaVuSans-Bold-73" x="796.337891"/>
     <use xlink:href="#DejaVuSans-Bold-68" x="855.859375"/>
     <use xlink:href="#DejaVuSans-Bold-6f" x="927.050781"/>
     <use xlink:href="#DejaVuSans-Bold-74" x="995.751953"/>
     <use xlink:href="#DejaVuSans-Bold-5f" x="1043.554688"/>
     <use xlink:href="#DejaVuSans-Bold-63" x="1093.554688"/>
     <use xlink:href="#DejaVuSans-Bold-6c" x="1152.832031"/>
     <use xlink:href="#DejaVuSans-Bold-65" x="1187.109375"/>
     <use xlink:href="#DejaVuSans-Bold-61" x="1254.931641"/>
     <use xlink:href="#DejaVuSans-Bold-6e" x="1322.412109"/>
     <use xlink:href="#DejaVuSans-Bold-75" x="1393.603516"/>
     <use xlink:href="#DejaVuSans-Bold-70" x="1464.794922"/>
     <use xlink:href="#DejaVuSans-Bold-29" x="1536.376953"/>
    </g>
   </g>
   <g id="text_19">
    <!-- Runs in private subnet -->
    <g style="fill: #111827" transform="translate(532.1664 254.527191) scale(0.103 -0.103)">
     <defs>
      <path id="DejaVuSans-52" d="M 2841 2188 
Q 3044 2119 3236 1894 
Q 3428 1669 3622 1275 
L 4263 0 
L 3584 0 
L 2988 1197 
Q 2756 1666 2539 1819 
Q 2322 1972 1947 1972 
L 1259 1972 
L 1259 0 
L 628 0 
L 628 4666 
L 2053 4666 
Q 2853 4666 3247 4331 
Q 3641 3997 3641 3322 
Q 3641 2881 3436 2590 
Q 3231 2300 2841 2188 
z
M 1259 4147 
L 1259 2491 
L 2053 2491 
Q 2509 2491 2742 2702 
Q 2975 2913 2975 3322 
Q 2975 3731 2742 3939 
Q 2509 4147 2053 4147 
L 1259 4147 
z
" transform="scale(0.015625)"/>
     </defs>
     <use xlink:href="#DejaVuSans-52"/>
     <use xlink:href="#DejaVuSans-75" x="64.982422"/>
     <use xlink:href="#DejaVuSans-6e" x="128.361328"/>
     <use xlink:href="#DejaVuSans-73" x="191.740234"/>
     <use xlink:href="#DejaVuSans-20" x="243.839844"/>
     <use xlink:href="#DejaVuSans-69" x="275.626953"/>
     <use xlink:href="#DejaVuSans-6e" x="303.410156"/>
     <use xlink:href="#DejaVuSans-20" x="366.789062"/>
     <use xlink:href="#DejaVuSans-70" x="398.576172"/>
     <use xlink:href="#DejaVuSans-72" x="462.052734"/>
     <use xlink:href="#DejaVuSans-69" x="503.166016"/>
     <use xlink:href="#DejaVuSans-76" x="530.949219"/>
     <use xlink:href="#DejaVuSans-61" x="590.128906"/>
     <use xlink:href="#DejaVuSans-74" x="651.408203"/>
     <use xlink:href="#DejaVuSans-65" x="690.617188"/>
     <use xlink:href="#DejaVuSans-20" x="752.140625"/>
     <use xlink:href="#DejaVuSans-73" x="783.927734"/>
     <use xlink:href="#DejaVuSans-75" x="836.027344"/>
     <use xlink:href="#DejaVuSans-62" x="899.40625"/>
     <use xlink:href="#DejaVuSans-6e" x="962.882812"/>
     <use xlink:href="#DejaVuSans-65" x="1026.261719"/>
     <use xlink:href="#DejaVuSans-74" x="1087.785156"/>
    </g>
    <!-- • List snapshots (Owner=self) -->
    <g style="fill: #111827" transform="translate(532.1664 266.060938) scale(0.103 -0.103)">
     <defs>
      <path id="DejaVuSans-2022" d="M 959 2381 
Q 959 2769 1229 3036 
Q 1500 3303 1894 3303 
Q 2281 3303 2548 3036 
Q 2816 2769 2816 2381 
Q 2816 1991 2547 1722 
Q 2278 1453 1888 1453 
Q 1497 1453 1228 1722 
Q 959 1991 959 2381 
z
" transform="scale(0.015625)"/>
     </defs>
     <use xlink:href="#DejaVuSans-2022"/>
     <use xlink:href="#DejaVuSans-20" x="58.984375"/>
     <use xlink:href="#DejaVuSans-4c" x="90.771484"/>
     <use xlink:href="#DejaVuSans-69" x="146.484375"/>
     <use xlink:href="#DejaVuSans-73" x="174.267578"/>
     <use xlink:href="#DejaVuSans-74" x="226.367188"/>
     <use xlink:href="#DejaVuSans-20" x="265.576172"/>
     <use xlink:href="#DejaVuSans-73" x="297.363281"/>
     <use xlink:href="#DejaVuSans-6e" x="349.462891"/>
     <use xlink:href="#DejaVuSans-61" x="412.841797"/>
     <use xlink:href="#DejaVuSans-70" x="474.121094"/>
     <use xlink:href="#DejaVuSans-73" x="537.597656"/>
     <use xlink:href="#DejaVuSans-68" x="589.697266"/>
     <use xlink:href="#DejaVuSans-6f" x="653.076172"/>
     <use xlink:href="#DejaVuSans-74" x="714.257812"/>
     <use xlink:href="#DejaVuSans-73" x="753.466797"/>
     <use xlink:href="#DejaVuSans-20" x="805.566406"/>
     <use xlink:href="#DejaVuSans-28" x="837.353516"/>
     <use xlink:href="#DejaVuSans-4f" x="876.367188"/>
     <use xlink:href="#DejaVuSans-77" x="955.078125"/>
     <use xlink:href="#DejaVuSans-6e" x="1036.865234"/>
     <use xlink:href="#DejaVuSans-65" x="1100.244141"/>
     <use xlink:href="#DejaVuSans-72" x="1161.767578"/>
     <use xlink:href="#DejaVuSans-3d" x="1202.880859"/>
     <use xlink:href="#DejaVuSans-73" x="1286.669922"/>
     <use xlink:href="#DejaVuSans-65" x="1338.769531"/>
     <use xlink:href="#DejaVuSans-6c" x="1400.292969"/>
     <use xlink:href="#DejaVuSans-66" x="1428.076172"/>
     <use xlink:href="#DejaVuSans-29" x="1463.28125"/>
    </g>
    <!-- • Filter older than cutoff -->
    <g style="fill: #111827" transform="translate(532.1664 277.594684) scale(0.103 -0.103)">
     <defs>
      <path id="DejaVuSans-46" d="M 628 4666 
L 3309 4666 
L 3309 4134 
L 1259 4134 
L 1259 2759 
L 3109 2759 
L 3109 2228 
L 1259 2228 
L 1259 0 
L 628 0 
L 628 4666 
z
" transform="scale(0.015625)"/>
     </defs>
     <use xlink:href="#DejaVuSans-2022"/>
     <use xlink:href="#DejaVuSans-20" x="58.984375"/>
     <use xlink:href="#DejaVuSans-46" x="90.771484"/>
     <use xlink:href="#DejaVuSans-69" x="141.041016"/>
     <use xlink:href="#DejaVuSans-6c" x="168.824219"/>
     <use xlink:href="#DejaVuSans-74" x="196.607422"/>
     <use xlink:href="#DejaVuSans-65" x="235.816406"/>
     <use xlink:href="#DejaVuSans-72" x="297.339844"/>
     <use xlink:href="#DejaVuSans-20" x="338.453125"/>
     <use xlink:href="#DejaVuSans-6f" x="370.240234"/>
     <use xlink:href="#DejaVuSans-6c" x="431.421875"/>
     <use xlink:href="#DejaVuSans-64" x="459.205078"/>
     <use xlink:href="#DejaVuSans-65" x="522.681641"/>
     <use xlink:href="#DejaVuSans-72" x="584.205078"/>
     <use xlink:href="#DejaVuSans-20" x="625.318359"/>
     <use xlink:href="#DejaVuSans-74" x="657.105469"/>
     <use xlink:href="#DejaVuSans-68" x="696.314453"/>
     <use xlink:href="#DejaVuSans-61" x="759.693359"/>
     <use xlink:href="#DejaVuSans-6e" x="820.972656"/>
     <use xlink:href="#DejaVuSans-20" x="884.351562"/>
     <use xlink:href="#DejaVuSans-63" x="916.138672"/>
     <use xlink:href="#DejaVuSans-75" x="971.119141"/>
     <use xlink:href="#DejaVuSans-74" x="1034.498047"/>
     <use xlink:href="#DejaVuSans-6f" x="1073.707031"/>
     <use xlink:href="#DejaVuSans-66" x="1134.888672"/>
     <use xlink:href="#DejaVuSans-66" x="1170.09375"/>
    </g>
    <!-- • Delete eligible snapshots -->
    <g style="fill: #111827" transform="translate(532.1664 289.128431) scale(0.103 -0.103)">
     <use xlink:href="#DejaVuSans-2022"/>
     <use xlink:href="#DejaVuSans-20" x="58.984375"/>
     <use xlink:href="#DejaVuSans-44" x="90.771484"/>
     <use xlink:href="#DejaVuSans-65" x="167.773438"/>
     <use xlink:href="#DejaVuSans-6c" x="229.296875"/>
     <use xlink:href="#DejaVuSans-65" x="257.080078"/>
     <use xlink:href="#DejaVuSans-74" x="318.603516"/>
     <use xlink:href="#DejaVuSans-65" x="357.8125"/>
     <use xlink:href="#DejaVuSans-20" x="419.335938"/>
     <use xlink:href="#DejaVuSans-65" x="451.123047"/>
     <use xlink:href="#DejaVuSans-6c" x="512.646484"/>
     <use xlink:href="#DejaVuSans-69" x="540.429688"/>
     <use xlink:href="#DejaVuSans-67" x="568.212891"/>
     <use xlink:href="#DejaVuSans-69" x="631.689453"/>
     <use xlink:href="#DejaVuSans-62" x="659.472656"/>
     <use xlink:href="#DejaVuSans-6c" x="722.949219"/>
     <use xlink:href="#DejaVuSans-65" x="750.732422"/>
     <use xlink:href="#DejaVuSans-20" x="812.255859"/>
     <use xlink:href="#DejaVuSans-73" x="844.042969"/>
     <use xlink:href="#DejaVuSans-6e" x="896.142578"/>
     <use xlink:href="#DejaVuSans-61" x="959.521484"/>
     <use xlink:href="#DejaVuSans-70" x="1020.800781"/>
     <use xlink:href="#DejaVuSans-73" x="1084.277344"/>
     <use xlink:href="#DejaVuSans-68" x="1136.376953"/>
     <use xlink:href="#DejaVuSans-6f" x="1199.755859"/>
     <use xlink:href="#DejaVuSans-74" x="1260.9375"/>
     <use xlink:href="#DejaVuSans-73" x="1300.146484"/>
    </g>
    <!-- • Log actions/errors -->
    <g style="fill: #111827" transform="translate(532.1664 300.662178) scale(0.103 -0.103)">
     <use xlink:href="#DejaVuSans-2022"/>
     <use xlink:href="#DejaVuSans-20" x="58.984375"/>
     <use xlink:href="#DejaVuSans-4c" x="90.771484"/>
     <use xlink:href="#DejaVuSans-6f" x="144.734375"/>
     <use xlink:href="#DejaVuSans-67" x="205.916016"/>
     <use xlink:href="#DejaVuSans-20" x="269.392578"/>
     <use xlink:href="#DejaVuSans-61" x="301.179688"/>
     <use xlink:href="#DejaVuSans-63" x="362.458984"/>
     <use xlink:href="#DejaVuSans-74" x="417.439453"/>
     <use xlink:href="#DejaVuSans-69" x="456.648438"/>
     <use xlink:href="#DejaVuSans-6f" x="484.431641"/>
     <use xlink:href="#DejaVuSans-6e" x="545.613281"/>
     <use xlink:href="#DejaVuSans-73" x="608.992188"/>
     <use xlink:href="#DejaVuSans-2f" x="661.091797"/>
     <use xlink:href="#DejaVuSans-65" x="694.783203"/>
     <use xlink:href="#DejaVuSans-72" x="756.306641"/>
     <use xlink:href="#DejaVuSans-72" x="795.669922"/>
     <use xlink:href="#DejaVuSans-6f" x="834.533203"/>
     <use xlink:href="#DejaVuSans-72" x="895.714844"/>
     <use xlink:href="#DejaVuSans-73" x="936.828125"/>
    </g>
   </g>
   <g id="text_20">
    <!-- Lambda Security Group -->
    <g style="fill: #111827" transform="translate(532.1664 337.030367) scale(0.125 -0.125)">
     <use xlink:href="#DejaVuSans-Bold-4c"/>
     <use xlink:href="#DejaVuSans-Bold-61" x="63.720703"/>
     <use xlink:href="#DejaVuSans-Bold-6d" x="131.201172"/>
     <use xlink:href="#DejaVuSans-Bold-62" x="235.400391"/>
     <use xlink:href="#DejaVuSans-Bold-64" x="306.982422"/>
     <use xlink:href="#DejaVuSans-Bold-61" x="378.564453"/>
     <use xlink:href="#DejaVuSans-Bold-20" x="446.044922"/>
     <use xlink:href="#DejaVuSans-Bold-53" x="480.859375"/>
     <use xlink:href="#DejaVuSans-Bold-65" x="552.880859"/>
     <use xlink:href="#DejaVuSans-Bold-63" x="620.703125"/>
     <use xlink:href="#DejaVuSans-Bold-75" x="679.980469"/>
     <use xlink:href="#DejaVuSans-Bold-72" x="751.171875"/>
     <use xlink:href="#DejaVuSans-Bold-69" x="800.488281"/>
     <use xlink:href="#DejaVuSans-Bold-74" x="834.765625"/>
     <use xlink:href="#DejaVuSans-Bold-79" x="882.568359"/>
     <use xlink:href="#DejaVuSans-Bold-20" x="947.753906"/>
     <use xlink:href="#DejaVuSans-Bold-47" x="982.568359"/>
     <use xlink:href="#DejaVuSans-Bold-72" x="1064.648438"/>
     <use xlink:href="#DejaVuSans-Bold-6f" x="1113.964844"/>
     <use xlink:href="#DejaVuSans-Bold-75" x="1182.666016"/>
     <use xlink:href="#DejaVuSans-Bold-70" x="1253.857422"/>
    </g>
   </g>
   <g id="text_21">
    <!-- Egress-only (outbound allowed) -->
    <g style="fill: #111827" transform="translate(532.1664 359.460759) scale(0.105 -0.105)">
     <defs>
      <path id="DejaVuSans-2d" d="M 313 2009 
L 1997 2009 
L 1997 1497 
L 313 1497 
L 313 2009 
z
" transform="scale(0.015625)"/>
     </defs>
     <use xlink:href="#DejaVuSans-45"/>
     <use xlink:href="#DejaVuSans-67" x="63.183594"/>
     <use xlink:href="#DejaVuSans-72" x="126.660156"/>
     <use xlink:href="#DejaVuSans-65" x="165.523438"/>
     <use xlink:href="#DejaVuSans-73" x="227.046875"/>
     <use xlink:href="#DejaVuSans-73" x="279.146484"/>
     <use xlink:href="#DejaVuSans-2d" x="331.246094"/>
     <use xlink:href="#DejaVuSans-6f" x="369.205078"/>
     <use xlink:href="#DejaVuSans-6e" x="430.386719"/>
     <use xlink:href="#DejaVuSans-6c" x="493.765625"/>
     <use xlink:href="#DejaVuSans-79" x="521.548828"/>
     <use xlink:href="#DejaVuSans-20" x="580.728516"/>
     <use xlink:href="#DejaVuSans-28" x="612.515625"/>
     <use xlink:href="#DejaVuSans-6f" x="651.529297"/>
     <use xlink:href="#DejaVuSans-75" x="712.710938"/>
     <use xlink:href="#DejaVuSans-74" x="776.089844"/>
     <use xlink:href="#DejaVuSans-62" x="815.298828"/>
     <use xlink:href="#DejaVuSans-6f" x="878.775391"/>
     <use xlink:href="#DejaVuSans-75" x="939.957031"/>
     <use xlink:href="#DejaVuSans-6e" x="1003.335938"/>
     <use xlink:href="#DejaVuSans-64" x="1066.714844"/>
     <use xlink:href="#DejaVuSans-20" x="1130.191406"/>
     <use xlink:href="#DejaVuSans-61" x="1161.978516"/>
     <use xlink:href="#DejaVuSans-6c" x="1223.257812"/>
     <use xlink:href="#DejaVuSans-6c" x="1251.041016"/>
     <use xlink:href="#DejaVuSans-6f" x="1278.824219"/>
     <use xlink:href="#DejaVuSans-77" x="1340.005859"/>
     <use xlink:href="#DejaVuSans-65" x="1421.792969"/>
     <use xlink:href="#DejaVuSans-64" x="1483.316406"/>
     <use xlink:href="#DejaVuSans-29" x="1546.792969"/>
    </g>
   </g>
   <g id="text_22">
    <!-- Operational Note -->
    <g style="fill: #111827" transform="translate(85.7664 456.780767) scale(0.125 -0.125)">
     <defs>
      <path id="DejaVuSans-Bold-4f" d="M 2719 3878 
Q 2169 3878 1866 3472 
Q 1563 3066 1563 2328 
Q 1563 1594 1866 1187 
Q 2169 781 2719 781 
Q 3272 781 3575 1187 
Q 3878 1594 3878 2328 
Q 3878 3066 3575 3472 
Q 3272 3878 2719 3878 
z
M 2719 4750 
Q 3844 4750 4481 4106 
Q 5119 3463 5119 2328 
Q 5119 1197 4481 553 
Q 3844 -91 2719 -91 
Q 1597 -91 958 553 
Q 319 1197 319 2328 
Q 319 3463 958 4106 
Q 1597 4750 2719 4750 
z
" transform="scale(0.015625)"/>
     </defs>
     <use xlink:href="#DejaVuSans-Bold-4f"/>
     <use xlink:href="#DejaVuSans-Bold-70" x="85.009766"/>
     <use xlink:href="#DejaVuSans-Bold-65" x="156.591797"/>
     <use xlink:href="#DejaVuSans-Bold-72" x="224.414062"/>
     <use xlink:href="#DejaVuSans-Bold-61" x="273.730469"/>
     <use xlink:href="#DejaVuSans-Bold-74" x="341.210938"/>
     <use xlink:href="#DejaVuSans-Bold-69" x="389.013672"/>
     <use xlink:href="#DejaVuSans-Bold-6f" x="423.291016"/>
     <use xlink:href="#DejaVuSans-Bold-6e" x="491.992188"/>
     <use xlink:href="#DejaVuSans-Bold-61" x="563.183594"/>
     <use xlink:href="#DejaVuSans-Bold-6c" x="630.664062"/>
     <use xlink:href="#DejaVuSans-Bold-20" x="664.941406"/>
     <use xlink:href="#DejaVuSans-Bold-4e" x="699.755859"/>
     <use xlink:href="#DejaVuSans-Bold-6f" x="783.447266"/>
     <use xlink:href="#DejaVuSans-Bold-74" x="852.148438"/>
     <use xlink:href="#DejaVuSans-Bold-65" x="899.951172"/>
    </g>
   </g>
   <g id="text_23">
    <!-- Use DRY_RUN=true first; then DRY_RUN=false to enable deletion. -->
    <g style="fill: #111827" transform="translate(85.7664 479.591081) scale(0.11 -0.11)">
     <defs>
      <path id="DejaVuSans-55" d="M 556 4666 
L 1191 4666 
L 1191 1831 
Q 1191 1081 1462 751 
Q 1734 422 2344 422 
Q 2950 422 3222 751 
Q 3494 1081 3494 1831 
L 3494 4666 
L 4128 4666 
L 4128 1753 
Q 4128 841 3676 375 
Q 3225 -91 2344 -91 
Q 1459 -91 1007 375 
Q 556 841 556 1753 
L 556 4666 
z
" transform="scale(0.015625)"/>
      <path id="DejaVuSans-59" d="M -13 4666 
L 666 4666 
L 1959 2747 
L 3244 4666 
L 3922 4666 
L 2272 2222 
L 2272 0 
L 1638 0 
L 1638 2222 
L -13 4666 
z
" transform="scale(0.015625)"/>
      <path id="DejaVuSans-5f" d="M 3263 -1063 
L 3263 -1509 
L -63 -1509 
L -63 -1063 
L 3263 -1063 
z
" transform="scale(0.015625)"/>
      <path id="DejaVuSans-4e" d="M 628 4666 
L 1478 4666 
L 3547 763 
L 3547 4666 
L 4159 4666 
L 4159 0 
L 3309 0 
L 1241 3903 
L 1241 0 
L 628 0 
L 628 4666 
z
" transform="scale(0.015625)"/>
      <path id="DejaVuSans-3b" d="M 750 3309 
L 1409 3309 
L 1409 2516 
L 750 2516 
L 750 3309 
z
M 750 794 
L 1409 794 
L 1409 256 
L 897 -744 
L 494 -744 
L 750 256 
L 750 794 
z
" transform="scale(0.015625)"/>
     </defs>
     <use xlink:href="#DejaVuSans-55"/>
     <use xlink:href="#DejaVuSans-73" x="73.193359"/>
     <use xlink:href="#DejaVuSans-65" x="125.292969"/>
     <use xlink:href="#DejaVuSans-20" x="186.816406"/>
     <use xlink:href="#DejaVuSans-44" x="218.603516"/>
     <use xlink:href="#DejaVuSans-52" x="295.605469"/>
     <use xlink:href="#DejaVuSans-59" x="358.712891"/>
     <use xlink:href="#DejaVuSans-5f" x="419.796875"/>
     <use xlink:href="#DejaVuSans-52" x="469.796875"/>
     <use xlink:href="#DejaVuSans-55" x="539.279297"/>
     <use xlink:href="#DejaVuSans-4e" x="612.472656"/>
     <use xlink:href="#DejaVuSans-3d" x="687.277344"/>
     <use xlink:href="#DejaVuSans-74" x="771.066406"/>
     <use xlink:href="#DejaVuSans-72" x="810.275391"/>
     <use xlink:href="#DejaVuSans-75" x="851.388672"/>
     <use xlink:href="#DejaVuSans-65" x="914.767578"/>
     <use xlink:href="#DejaVuSans-20" x="976.291016"/>
     <use xlink:href="#DejaVuSans-66" x="1008.078125"/>
     <use xlink:href="#DejaVuSans-69" x="1043.283203"/>
     <use xlink:href="#DejaVuSans-72" x="1071.066406"/>
     <use xlink:href="#DejaVuSans-73" x="1112.179688"/>
     <use xlink:href="#DejaVuSans-74" x="1164.279297"/>
     <use xlink:href="#DejaVuSans-3b" x="1203.488281"/>
     <use xlink:href="#DejaVuSans-20" x="1237.179688"/>
     <use xlink:href="#DejaVuSans-74" x="1268.966797"/>
     <use xlink:href="#DejaVuSans-68" x="1308.175781"/>
     <use xlink:href="#DejaVuSans-65" x="1371.554688"/>
     <use xlink:href="#DejaVuSans-6e" x="1433.078125"/>
     <use xlink:href="#DejaVuSans-20" x="1496.457031"/>
     <use xlink:href="#DejaVuSans-44" x="1528.244141"/>
     <use xlink:href="#DejaVuSans-52" x="1605.246094"/>
     <use xlink:href="#DejaVuSans-59" x="1668.353516"/>
     <use xlink:href="#DejaVuSans-5f" x="1729.4375"/>
     <use xlink:href="#DejaVuSans-52" x="1779.4375"/>
     <use xlink:href="#DejaVuSans-55" x="1848.919922"/>
     <use xlink:href="#DejaVuSans-4e" x="1922.113281"/>
     <use xlink:href="#DejaVuSans-3d" x="1996.917969"/>
     <use xlink:href="#DejaVuSans-66" x="2080.707031"/>
     <use xlink:href="#DejaVuSans-61" x="2115.912109"/>
     <use xlink:href="#DejaVuSans-6c" x="2177.191406"/>
     <use xlink:href="#DejaVuSans-73" x="2204.974609"/>
     <use xlink:href="#DejaVuSans-65" x="2257.074219"/>
     <use xlink:href="#DejaVuSans-20" x="2318.597656"/>
     <use xlink:href="#DejaVuSans-74" x="2350.384766"/>
     <use xlink:href="#DejaVuSans-6f" x="2389.59375"/>
     <use xlink:href="#DejaVuSans-20" x="2450.775391"/>
     <use xlink:href="#DejaVuSans-65" x="2482.5625"/>
     <use xlink:href="#DejaVuSans-6e" x="2544.085938"/>
     <use xlink:href="#DejaVuSans-61" x="2607.464844"/>
     <use xlink:href="#DejaVuSans-62" x="2668.744141"/>
     <use xlink:href="#DejaVuSans-6c" x="2732.220703"/>
     <use xlink:href="#DejaVuSans-65" x="2760.003906"/>
     <use xlink:href="#DejaVuSans-20" x="2821.527344"/>
     <use xlink:href="#DejaVuSans-64" x="2853.314453"/>
     <use xlink:href="#DejaVuSans-65" x="2916.791016"/>
     <use xlink:href="#DejaVuSans-6c" x="2978.314453"/>
     <use xlink:href="#DejaVuSans-65" x="3006.097656"/>
     <use xlink:href="#DejaVuSans-74" x="3067.621094"/>
     <use xlink:href="#DejaVuSans-69" x="3106.830078"/>
     <use xlink:href="#DejaVuSans-6f" x="3134.613281"/>
     <use xlink:href="#DejaVuSans-6e" x="3195.794922"/>
     <use xlink:href="#DejaVuSans-2e" x="3259.173828"/>
    </g>
   </g>
   <g id="text_24">
    <!-- Invoke (scheduled) -->
    <g style="fill: #111827" transform="translate(358.755819 164.288552) scale(0.1 -0.1)">
     <use xlink:href="#DejaVuSans-49"/>
     <use xlink:href="#DejaVuSans-6e" x="29.492188"/>
     <use xlink:href="#DejaVuSans-76" x="92.871094"/>
     <use xlink:href="#DejaVuSans-6f" x="152.050781"/>
     <use xlink:href="#DejaVuSans-6b" x="213.232422"/>
     <use xlink:href="#DejaVuSans-65" x="267.517578"/>
     <use xlink:href="#DejaVuSans-20" x="329.041016"/>
     <use xlink:href="#DejaVuSans-28" x="360.828125"/>
     <use xlink:href="#DejaVuSans-73" x="399.841797"/>
     <use xlink:href="#DejaVuSans-63" x="451.941406"/>
     <use xlink:href="#DejaVuSans-68" x="506.921875"/>
     <use xlink:href="#DejaVuSans-65" x="570.300781"/>
     <use xlink:href="#DejaVuSans-64" x="631.824219"/>
     <use xlink:href="#DejaVuSans-75" x="695.300781"/>
     <use xlink:href="#DejaVuSans-6c" x="758.679688"/>
     <use xlink:href="#DejaVuSans-65" x="786.462891"/>
     <use xlink:href="#DejaVuSans-64" x="847.986328"/>
     <use xlink:href="#DejaVuSans-29" x="911.462891"/>
    </g>
   </g>
   <g id="text_25">
    <!-- Logs/Metrics -->
    <g style="fill: #111827" transform="translate(513.295288 161.793752) scale(0.1 -0.1)">
     <use xlink:href="#DejaVuSans-4c"/>
     <use xlink:href="#DejaVuSans-6f" x="53.962891"/>
     <use xlink:href="#DejaVuSans-67" x="115.144531"/>
     <use xlink:href="#DejaVuSans-73" x="178.621094"/>
     <use xlink:href="#DejaVuSans-2f" x="230.720703"/>
     <use xlink:href="#DejaVuSans-4d" x="264.412109"/>
     <use xlink:href="#DejaVuSans-65" x="350.691406"/>
     <use xlink:href="#DejaVuSans-74" x="412.214844"/>
     <use xlink:href="#DejaVuSans-72" x="451.423828"/>
     <use xlink:href="#DejaVuSans-69" x="492.537109"/>
     <use xlink:href="#DejaVuSans-63" x="520.320312"/>
     <use xlink:href="#DejaVuSans-73" x="575.300781"/>
    </g>
   </g>
   <g id="text_26">
    <!-- HTTPS to AWS API -->
    <g style="fill: #111827" transform="translate(656.868713 151.814553) scale(0.1 -0.1)">
     <defs>
      <path id="DejaVuSans-48" d="M 628 4666 
L 1259 4666 
L 1259 2753 
L 3553 2753 
L 3553 4666 
L 4184 4666 
L 4184 0 
L 3553 0 
L 3553 2222 
L 1259 2222 
L 1259 0 
L 628 0 
L 628 4666 
z
" transform="scale(0.015625)"/>
      <path id="DejaVuSans-54" d="M -19 4666 
L 3928 4666 
L 3928 4134 
L 2272 4134 
L 2272 0 
L 1638 0 
L 1638 4134 
L -19 4134 
L -19 4666 
z
" transform="scale(0.015625)"/>
     </defs>
     <use xlink:href="#DejaVuSans-48"/>
     <use xlink:href="#DejaVuSans-54" x="75.195312"/>
     <use xlink:href="#DejaVuSans-54" x="134.529297"/>
     <use xlink:href="#DejaVuSans-50" x="195.613281"/>
     <use xlink:href="#DejaVuSans-53" x="255.916016"/>
     <use xlink:href="#DejaVuSans-20" x="319.392578"/>
     <use xlink:href="#DejaVuSans-74" x="351.179688"/>
     <use xlink:href="#DejaVuSans-6f" x="390.388672"/>
     <use xlink:href="#DejaVuSans-20" x="451.570312"/>
     <use xlink:href="#DejaVuSans-41" x="483.357422"/>
     <use xlink:href="#DejaVuSans-57" x="546.265625"/>
     <use xlink:href="#DejaVuSans-53" x="645.142578"/>
     <use xlink:href="#DejaVuSans-20" x="708.619141"/>
     <use xlink:href="#DejaVuSans-41" x="740.40625"/>
     <use xlink:href="#DejaVuSans-50" x="808.814453"/>
     <use xlink:href="#DejaVuSans-49" x="869.117188"/>
    </g>
   </g>
   <g id="text_27">
    <!-- 0.0.0.0/0 → NAT -->
    <g style="fill: #111827" transform="translate(426.546075 251.606553) scale(0.1 -0.1)">
     <use xlink:href="#DejaVuSans-30"/>
     <use xlink:href="#DejaVuSans-2e" x="63.623047"/>
     <use xlink:href="#DejaVuSans-30" x="95.410156"/>
     <use xlink:href="#DejaVuSans-2e" x="159.033203"/>
     <use xlink:href="#DejaVuSans-30" x="190.820312"/>
     <use xlink:href="#DejaVuSans-2e" x="254.443359"/>
     <use xlink:href="#DejaVuSans-30" x="286.230469"/>
     <use xlink:href="#DejaVuSans-2f" x="349.853516"/>
     <use xlink:href="#DejaVuSans-30" x="383.544922"/>
     <use xlink:href="#DejaVuSans-20" x="447.167969"/>
     <use xlink:href="#DejaVuSans-2192" x="478.955078"/>
     <use xlink:href="#DejaVuSans-20" x="562.744141"/>
     <use xlink:href="#DejaVuSans-4e" x="594.53125"/>
     <use xlink:href="#DejaVuSans-41" x="669.335938"/>
     <use xlink:href="#DejaVuSans-54" x="729.994141"/>
    </g>
   </g>
   <g id="text_28">
    <!-- NAT → IGW -->
    <g style="fill: #111827" transform="translate(234.159719 246.616953) scale(0.1 -0.1)">
     <use xlink:href="#DejaVuSans-4e"/>
     <use xlink:href="#DejaVuSans-41" x="74.804688"/>
     <use xlink:href="#DejaVuSans-54" x="135.462891"/>
     <use xlink:href="#DejaVuSans-20" x="196.546875"/>
     <use xlink:href="#DejaVuSans-2192" x="228.333984"/>
     <use xlink:href="#DejaVuSans-20" x="312.123047"/>
     <use xlink:href="#DejaVuSans-49" x="343.910156"/>
     <use xlink:href="#DejaVuSans-47" x="373.402344"/>
     <use xlink:href="#DejaVuSans-57" x="450.892578"/>
    </g>
   </g>
  </g>
 </g>
 <defs>
  <clipPath id="pd6a0d8d52c">
   <rect x="7.2" y="7.2" width="892.8" height="498.96"/>
  </clipPath>
 </defs>
</svg>
